<svg version="1.1" id="Layer_1" xmlns="http://www.w3.org/2000/svg" xmlns:xlink="http://www.w3.org/1999/xlink" x="0px" y="0px"
	 width="100%" viewBox="0 0 1084 620" enable-background="new 0 0 1084 620" xml:space="preserve">
<path fill="#FFFFFF" opacity="1.000000" stroke="none" 
	d="
M1.000000,542.000000 
	C1.000000,361.689545 1.000000,181.379105 1.000000,1.034326 
	C362.264618,1.034326 723.529236,1.034326 1084.896973,1.034326 
	C1084.896973,207.571655 1084.896973,414.143372 1084.896973,621.000000 
	C753.637329,621.000000 422.274628,621.000000 90.456055,620.531372 
	C89.666367,605.805237 89.917923,591.501831 88.802078,577.305847 
	C87.998154,567.078369 83.680901,558.093933 75.122978,551.344604 
	C66.418030,544.479431 56.331161,542.466370 45.894432,542.124756 
	C30.944277,541.635376 15.966171,542.000000 1.000000,542.000000 
M353.049438,146.796524 
	C350.176178,148.490265 349.021545,150.758286 350.961914,153.817047 
	C353.146393,157.260651 356.094147,156.578781 359.786865,154.916519 
	C361.542389,152.999863 363.739136,151.108368 359.970795,148.239548 
	C358.979065,147.515335 357.987305,146.791138 356.636841,145.562714 
	C355.670227,145.892761 354.703613,146.222809 353.049438,146.796524 
M566.116516,500.078491 
	C566.451050,496.897858 566.785583,493.717194 568.033264,490.644257 
	C620.643127,490.656525 673.252991,490.670013 725.862854,490.671539 
	C726.856506,490.671570 727.850159,490.530090 729.644165,490.771393 
	C731.857971,490.265289 734.071716,489.759186 737.017212,489.237518 
	C737.969421,489.045502 738.921631,488.853455 740.499023,488.849182 
	C740.983215,488.493073 741.467346,488.136993 742.599792,487.723419 
	C743.002930,487.568909 743.406006,487.414398 744.391296,487.542084 
	C745.424988,486.886993 746.458618,486.231934 748.097900,485.354614 
	C749.044678,484.853271 749.991455,484.351929 751.629822,483.890503 
	C753.165527,482.658539 754.701172,481.426575 756.769165,479.870331 
	C757.848572,478.915619 758.927917,477.960907 760.659607,476.923737 
	C761.441711,475.953156 762.223755,474.982574 763.510376,473.637268 
	C764.290710,472.650391 765.071045,471.663513 766.493347,470.585938 
	C767.167236,469.336121 767.841187,468.086304 768.932068,466.357880 
	C769.339905,465.634705 769.747742,464.911560 770.740662,463.970306 
	C771.019653,463.264374 771.298584,462.558441 771.886353,461.241119 
	C772.496460,459.806519 773.106567,458.371918 774.310608,456.675995 
	C774.465027,456.087372 774.619446,455.498779 775.009644,454.297455 
	C775.120056,453.651123 775.230469,453.004761 775.910217,452.074738 
	C776.090515,451.327789 776.270813,450.580841 776.688660,449.146393 
	C776.760376,448.423706 776.832153,447.701019 777.446045,446.577911 
	C777.688049,444.711731 777.929993,442.845581 778.309082,440.054871 
	C778.266357,434.708862 778.223572,429.362823 778.573242,423.487579 
	C778.016785,421.665894 777.460388,419.844208 776.899658,417.292999 
	C776.743347,416.584686 776.586975,415.876373 776.667847,414.449097 
	C775.167725,411.230438 773.667603,408.011780 772.034851,404.220581 
	C771.876526,403.863403 771.718140,403.506226 771.707764,402.546356 
	C771.188049,401.972870 770.668335,401.399384 770.062012,400.417725 
	C770.062012,400.417725 769.842957,400.062622 769.866638,399.410645 
	C769.436157,398.974609 769.005676,398.538574 769.053772,397.287262 
	C770.502319,397.071686 771.949158,396.682709 773.399780,396.667786 
	C785.686096,396.541107 797.973083,396.464020 810.259949,396.407715 
	C834.170349,396.298096 858.080872,396.211548 882.501526,396.510040 
	C884.316040,395.916962 886.130554,395.323914 888.590271,394.724274 
	C889.002625,394.610046 889.415039,394.495819 890.410400,394.641022 
	C891.035767,394.177643 891.661133,393.714264 892.849915,393.172760 
	C893.211426,393.060089 893.572937,392.947449 894.647705,392.929779 
	C896.579163,391.768250 898.510681,390.606720 900.957031,389.150146 
	C901.622131,388.726837 902.287292,388.303558 903.578918,387.913666 
	C904.124329,387.335754 904.669739,386.757843 905.761108,385.876801 
	C906.840698,384.912628 907.920288,383.948456 909.666748,382.913300 
	C910.714050,381.581757 911.761353,380.250214 913.307739,378.454803 
	C915.922546,374.367157 918.537354,370.279480 921.800293,365.973541 
	C922.446472,364.282257 923.092651,362.591003 923.992493,360.288757 
	C924.096130,359.636505 924.199707,358.984222 924.902832,358.001831 
	C925.139771,356.958130 925.376770,355.914429 925.792908,354.254028 
	C925.823730,353.828033 925.854614,353.402039 926.438660,352.490387 
	C926.723755,350.268890 927.008911,348.047363 927.515381,344.946381 
	C927.436340,340.356018 927.357239,335.765656 927.626526,330.451508 
	C927.036377,328.310760 926.446289,326.169983 925.861572,323.386230 
	C925.773743,322.967926 925.685913,322.549622 925.819458,321.474335 
	C925.309082,320.543976 924.798706,319.613617 924.237488,318.020569 
	C924.057678,317.384613 923.877930,316.748657 923.799683,315.406860 
	C922.906860,313.886505 922.013977,312.366150 920.973145,310.168213 
	C919.292175,307.454559 917.611267,304.740906 915.954590,301.393463 
	C915.368164,300.849792 914.781799,300.306122 913.889099,299.176697 
	C910.001709,295.721436 906.114319,292.266205 901.984131,288.191528 
	C900.623474,287.542297 899.262878,286.893036 897.455872,285.926514 
	C897.111572,285.809174 896.767334,285.691833 896.092651,285.052673 
	C895.368164,284.770691 894.643616,284.488708 893.322998,283.953644 
	C892.688416,283.828125 892.053833,283.702576 891.116150,283.018463 
	C890.363037,282.824036 889.609924,282.629608 888.251465,282.224701 
	C887.827209,282.185059 887.402893,282.145416 886.462402,281.574158 
	C883.915466,281.294495 881.368469,281.014832 877.937805,280.519287 
	C858.201538,280.519287 838.465271,280.519287 818.045837,280.519287 
	C818.045837,262.502319 818.045837,245.251709 818.467590,227.373810 
	C817.908447,223.931854 817.349304,220.489883 816.802979,216.314499 
	C816.655945,215.598938 816.508911,214.883362 816.661133,213.444550 
	C815.517212,210.541916 814.373291,207.639282 813.152100,204.166504 
	C813.008911,203.812531 812.865784,203.458557 812.826843,202.495941 
	C812.343384,201.867447 811.859985,201.238968 811.233521,200.070648 
	C811.034119,199.759003 810.834717,199.447357 810.749268,198.502335 
	C810.142700,197.710388 809.536072,196.918442 808.564270,195.555115 
	C806.714355,193.031815 804.864441,190.508514 802.931396,187.362335 
	C802.295898,186.898666 801.660400,186.435013 800.582764,185.471268 
	C797.178406,182.868073 793.773987,180.264877 790.115479,177.078568 
	C789.386536,176.779510 788.657654,176.480453 787.535645,175.998138 
	C787.535645,175.998138 787.110229,175.913696 786.914062,175.272522 
	C784.605957,174.479874 782.297852,173.687225 779.461731,172.755447 
	C779.100342,172.715561 778.738892,172.675674 778.026978,172.041901 
	C776.966980,171.856445 775.907043,171.671005 774.015442,171.274765 
	C772.007690,171.184875 769.999939,171.094971 767.367065,170.473526 
	C761.566711,170.338089 755.766418,170.202667 750.065430,169.361374 
	C750.894104,167.933624 751.565613,166.382126 752.576477,165.097748 
	C760.489502,155.044189 765.361877,143.827957 767.277039,131.063858 
	C769.772522,114.432129 764.747192,99.706909 755.691040,86.562721 
	C745.862000,72.296806 731.397888,63.156364 715.367249,57.141083 
	C703.986389,52.870571 692.239197,49.053722 680.319519,46.861984 
	C661.662231,43.431370 642.779175,40.169361 623.884460,39.369179 
	C602.372253,38.458141 580.703003,39.736965 559.175354,41.168385 
	C540.394409,42.417164 522.024414,46.501026 503.827240,51.648151 
	C489.344788,55.744549 475.283600,60.649868 461.659119,66.944496 
	C436.564606,78.538383 413.346832,92.845802 395.907166,114.798737 
	C388.730835,123.832184 384.054413,134.472672 384.175232,146.269440 
	C384.251099,153.676147 385.922943,161.066513 386.949646,169.013123 
	C385.510193,169.013123 383.557648,169.013077 381.605133,169.013123 
	C340.281342,169.013977 298.957458,168.992920 257.633881,169.086304 
	C255.751297,169.090546 253.871017,170.126389 251.151398,170.908447 
	C239.528198,171.674606 229.630707,176.393356 221.304428,184.356064 
	C208.548676,196.554810 202.928497,211.814224 202.872055,229.233139 
	C202.788361,255.061432 202.701233,280.891724 202.964554,306.717651 
	C203.026672,312.808655 203.859100,319.048645 205.405624,324.939575 
	C211.029480,346.361633 230.368866,366.262817 257.081696,365.280823 
	C275.386963,364.607880 293.736969,365.150055 312.066986,365.153961 
	C318.845459,365.155396 320.511688,366.629669 322.185181,374.778595 
	C319.942535,374.778595 317.823242,374.520416 315.790894,374.831024 
	C311.218750,375.529816 306.431305,375.843811 302.186737,377.488983 
	C280.849518,385.759125 269.693756,402.273865 266.871552,424.311371 
	C264.041504,446.410034 270.699432,465.378479 288.410278,480.506989 
	C290.292419,481.627045 292.174561,482.747101 294.415344,484.068298 
	C294.415344,484.068298 294.818634,484.148468 295.057831,484.756561 
	C297.043304,485.566925 299.028778,486.377289 301.506714,487.354370 
	C301.848480,487.409088 302.190216,487.463806 302.874786,488.040192 
	C303.621765,488.254242 304.368744,488.468323 305.838287,488.923950 
	C307.097504,489.069824 308.356750,489.215698 310.032990,490.004059 
	C312.406738,490.162415 314.780518,490.320770 318.056946,490.627136 
	C382.042999,490.613098 446.029022,490.599091 510.194153,491.544525 
	C510.166260,494.708710 510.138397,497.872925 509.159912,501.002563 
	C492.043518,501.338501 474.925720,501.616119 457.811523,502.040955 
	C451.517822,502.197205 445.225250,502.600311 438.945190,503.066132 
	C421.949219,504.326843 404.945160,505.515350 387.973389,507.053375 
	C375.140259,508.216339 362.284424,509.441864 349.562347,511.430573 
	C336.539276,513.466309 323.544006,515.981689 310.774780,519.225159 
	C303.200500,521.149109 295.709747,524.209045 288.879700,528.012146 
	C282.941620,531.318665 283.412109,536.385620 289.226318,540.071838 
	C303.016693,548.814819 319.083679,550.427185 334.498688,553.854492 
	C343.011383,555.747131 351.839142,556.220825 360.523773,557.342590 
	C372.484467,558.887695 384.411194,560.800415 396.412567,561.899414 
	C411.412537,563.273010 426.464783,564.148987 441.510529,564.929932 
	C458.243347,565.798523 474.998383,566.964600 491.736511,566.858582 
	C528.972839,566.622803 566.210144,565.887756 603.436035,564.926819 
	C622.148804,564.443909 640.866943,563.397339 659.528748,561.922974 
	C679.299683,560.361145 699.098816,558.621582 718.711182,555.762878 
	C733.366333,553.626770 747.836548,549.944641 762.198853,546.217896 
	C767.638367,544.806580 772.911377,541.872742 777.583801,538.651611 
	C781.674316,535.831604 781.219360,531.227173 777.005676,528.507568 
	C773.033508,525.943726 768.808044,523.440674 764.340332,522.034485 
	C746.155518,516.310974 727.549011,512.609375 708.519836,510.821350 
	C691.745850,509.245209 675.068115,506.631042 658.290039,505.115448 
	C642.130066,503.655670 625.905457,502.807861 609.691833,502.077850 
	C595.254028,501.427765 580.792358,501.306946 566.116516,500.078491 
M871.500000,445.940521 
	C884.997681,445.940552 898.495361,445.941833 911.993042,445.940216 
	C925.823975,445.938568 939.656372,446.054871 953.485291,445.884430 
	C961.474060,445.785980 967.125732,439.692200 967.123596,431.737061 
	C967.121521,423.945374 962.087341,417.981689 955.050537,417.972382 
	C906.059143,417.907593 857.067444,417.896942 808.076416,418.055237 
	C805.666138,418.063019 802.874268,419.317383 800.931824,420.845306 
	C796.347900,424.451050 794.810059,431.499603 796.873047,436.746429 
	C799.129272,442.484711 804.209290,445.900177 811.010315,445.920349 
	C830.840027,445.979156 850.670105,445.940704 871.500000,445.940521 
M184.500000,406.191193 
	C172.181732,406.190796 159.862335,406.086853 147.545593,406.223755 
	C138.191284,406.327667 132.106125,412.282776 132.173904,420.884735 
	C132.240250,429.305786 138.264374,434.841949 147.496536,434.846710 
	C179.457443,434.863281 211.418396,434.816895 243.379211,434.872742 
	C248.495590,434.881683 252.587860,433.053375 255.026535,428.608307 
	C260.473602,418.679779 255.381271,406.399689 241.930374,406.247375 
	C223.122452,406.034393 204.310333,406.192352 184.500000,406.191193 
M862.503174,265.837616 
	C879.664978,265.835846 896.826965,265.883362 913.988464,265.809509 
	C921.441345,265.777435 927.636292,259.610260 927.833008,252.304581 
	C928.048462,244.303391 922.451965,237.280273 915.102051,237.219025 
	C892.776611,237.032974 870.448303,237.087082 848.121887,237.194580 
	C842.818054,237.220108 837.081787,242.157944 836.159302,246.893433 
	C834.528320,255.265823 836.882080,262.162079 843.388245,263.961792 
	C849.158691,265.557983 855.446106,265.285095 862.503174,265.837616 
M133.692413,390.022736 
	C144.828918,390.023010 155.968658,389.869598 167.100189,390.105286 
	C171.098190,390.189972 172.336182,388.851776 172.152039,384.948639 
	C171.870346,378.978241 171.946396,372.980408 172.132629,367.002411 
	C172.241150,363.519012 170.650635,362.121155 167.430923,362.116791 
	C155.629639,362.100800 143.828201,362.134247 132.027039,362.090912 
	C128.342270,362.077393 127.086655,363.966400 127.154976,367.423828 
	C127.266617,373.072968 127.417587,378.738861 127.106560,384.373108 
	C126.866982,388.713226 128.323090,390.670715 133.692413,390.022736 
M340.328003,120.864044 
	C344.862427,125.645470 349.004608,126.016022 353.254395,122.020439 
	C356.599030,118.875809 356.588623,112.400681 353.233276,108.884773 
	C349.685516,105.167267 343.959869,104.701675 341.141296,109.114334 
	C339.336548,111.939850 340.189301,116.462852 340.328003,120.864044 
M115.693054,360.016663 
	C116.814026,360.294800 117.925896,360.764496 119.057526,360.818268 
	C124.230103,361.064117 127.756149,357.612000 127.857246,352.334015 
	C127.970818,346.404175 124.971909,343.330475 119.463448,343.048279 
	C115.265121,342.833160 112.643021,344.799072 111.532921,348.393250 
	C110.192818,352.732147 110.505745,356.980896 115.693054,360.016663 
M876.790833,225.079163 
	C879.208374,225.356293 881.666443,226.048950 884.034546,225.818390 
	C888.136719,225.418945 890.371887,221.448730 889.831238,215.898911 
	C889.443542,211.919067 887.756653,209.086639 883.110718,208.929031 
	C879.238770,208.797653 875.786865,209.143036 874.012146,213.236893 
	C872.163940,217.500244 872.817200,221.289597 876.790833,225.079163 
M241.607635,387.295197 
	C241.388336,383.463898 239.701340,380.456665 235.585144,381.351654 
	C233.577682,381.788147 230.613251,384.619659 230.697327,386.230560 
	C230.813293,388.452484 232.970779,391.609619 235.032578,392.445679 
	C238.178268,393.721283 240.636826,391.498535 241.607635,387.295197 
M944.867981,275.333252 
	C948.565063,273.591644 948.493591,270.277985 947.608337,267.236816 
	C947.221741,265.908539 945.176270,264.458099 943.675354,264.176788 
	C939.735046,263.438232 937.385559,266.103210 937.405640,269.518311 
	C937.427795,273.297241 939.805603,275.929932 944.867981,275.333252 
M861.717407,458.110321 
	C857.396240,459.031494 856.386292,462.330566 857.766541,465.610657 
	C858.523132,467.408875 861.690002,469.396973 863.608276,469.245819 
	C867.327759,468.952759 868.922363,465.553162 867.703796,462.241547 
	C867.047546,460.458038 864.307983,459.441101 861.717407,458.110321 
M834.793701,459.358734 
	C834.795654,457.473694 834.916138,455.570740 834.638000,453.727966 
	C834.606079,453.516418 831.870117,453.129303 831.233887,453.725861 
	C830.211792,454.684235 829.895996,456.395813 829.281799,457.789154 
	C830.885071,458.437622 832.488403,459.086090 834.793701,459.358734 
M323.974548,141.191696 
	C323.632141,142.870163 322.856628,144.628418 323.144440,146.190796 
	C323.273193,146.889847 326.072876,147.959656 326.710022,147.511124 
	C327.817596,146.731400 329.029938,144.576187 328.650238,143.599670 
	C328.190857,142.418442 326.122162,141.863037 323.974548,141.191696 
M207.351044,382.970428 
	C207.741348,381.124054 208.319809,379.281189 208.354568,377.428131 
	C208.361084,377.080231 206.007355,376.153168 205.086670,376.475494 
	C204.192627,376.788574 202.970001,378.729828 203.246750,379.313324 
	C203.931351,380.756622 205.391251,381.832214 207.351044,382.970428 
M955.154419,258.764435 
	C956.249878,260.113251 957.148560,261.782440 958.545532,262.640442 
	C959.047363,262.948639 961.435303,261.493744 961.713196,260.495667 
	C961.998657,259.470398 960.917969,257.088287 960.150940,256.956635 
	C958.704773,256.708466 957.054443,257.649475 955.154419,258.764435 
z"/>
<path fill="#FFFFFF" opacity="1.000000" stroke="none" 
	d="
M71.000000,621.000000 
	C47.741970,621.000000 24.483940,621.000000 1.000000,621.000000 
	C1.000000,599.312988 1.000000,577.625122 1.468655,555.470215 
	C21.011936,555.002808 40.086559,555.003723 59.161186,555.001892 
	C70.957817,555.000793 70.957817,554.998901 71.009369,567.477905 
	C71.004868,585.630310 71.002434,603.315125 71.000000,621.000000 
z"/>
<path fill="#F5F5F5" opacity="1.000000" stroke="none" 
	d="
M71.011429,567.010315 
	C70.957817,554.998901 70.957817,555.000793 59.161186,555.001892 
	C40.086559,555.003723 21.011936,555.002808 1.468655,555.001587 
	C1.000000,550.975464 1.000000,546.950928 1.000000,542.463196 
	C15.966171,542.000000 30.944277,541.635376 45.894432,542.124756 
	C56.331161,542.466370 66.418030,544.479431 75.122978,551.344604 
	C83.680901,558.093933 87.998154,567.078369 88.802078,577.305847 
	C89.917923,591.501831 89.666367,605.805237 90.000107,620.531372 
	C86.638710,621.000000 83.277428,621.000000 79.458260,620.531372 
	C78.665543,607.711365 78.759438,595.326782 77.806755,583.023315 
	C77.360939,577.265747 77.007553,570.741760 71.011429,567.010315 
z"/>
<path fill="#EBEBEB" opacity="1.000000" stroke="none" 
	d="
M71.009369,567.477905 
	C77.007553,570.741760 77.360939,577.265747 77.806755,583.023315 
	C78.759438,595.326782 78.665543,607.711365 79.000191,620.531372 
	C76.629440,621.000000 74.258888,621.000000 71.444168,621.000000 
	C71.002434,603.315125 71.004868,585.630310 71.009369,567.477905 
z"/>
<path fill="#447A9E" opacity="1.000000" stroke="none" 
	d="
M902.952393,387.880249 
	C902.287292,388.303558 901.622131,388.726837 900.329834,389.182983 
	C897.779907,390.422150 895.857178,391.628448 893.934448,392.834778 
	C893.572937,392.947449 893.211426,393.060089 892.265625,393.126984 
	C891.063354,393.514648 890.445374,393.948090 889.827393,394.381561 
	C889.415039,394.495819 889.002625,394.610046 888.024780,394.507385 
	C885.636658,394.898834 883.813965,395.507141 881.991333,396.115479 
	C858.080872,396.211548 834.170349,396.298096 810.259949,396.407715 
	C797.973083,396.464020 785.686096,396.541107 773.399780,396.667786 
	C771.949158,396.682709 770.502319,397.071686 768.646973,397.892273 
	C768.774475,399.019073 769.308716,399.540863 769.842957,400.062622 
	C769.842957,400.062622 770.062012,400.417725 770.051025,400.932251 
	C770.546631,402.014191 771.053223,402.581604 771.559814,403.149048 
	C771.718140,403.506226 771.876526,403.863403 772.061401,404.891724 
	C773.535583,408.764557 774.983093,411.966309 776.430603,415.168060 
	C776.586975,415.876373 776.743347,416.584686 776.653992,417.883179 
	C776.999146,420.321167 777.589966,422.169006 778.180786,424.016815 
	C778.223572,429.362823 778.266357,434.708862 777.947327,440.709320 
	C777.358337,443.235291 777.131104,445.106812 776.903870,446.978333 
	C776.832153,447.701019 776.760376,448.423706 776.277222,449.609619 
	C775.690796,450.834717 775.515808,451.596588 775.340881,452.358429 
	C775.230469,453.004761 775.120056,453.651123 774.625183,454.636200 
	C774.066040,455.629089 773.891357,456.283203 773.716675,456.937347 
	C773.106567,458.371918 772.496460,459.806519 771.432861,461.636047 
	C770.704712,462.750153 770.430176,463.469269 770.155579,464.188416 
	C769.747742,464.911560 769.339905,465.634705 768.423462,466.686462 
	C767.227051,468.235565 766.539185,469.456085 765.851379,470.676636 
	C765.071045,471.663513 764.290710,472.650391 762.916992,473.837646 
	C761.551453,475.027405 760.779358,476.016785 760.007263,477.006226 
	C758.927917,477.960907 757.848572,478.915619 756.144165,479.983276 
	C753.992188,481.347656 752.465210,482.599121 750.938232,483.850555 
	C749.991455,484.351929 749.044678,484.853271 747.481323,485.311829 
	C745.846130,485.932648 744.827637,486.596252 743.809143,487.259888 
	C743.406006,487.414398 743.002930,487.568909 742.112305,487.549164 
	C741.041199,487.803772 740.457520,488.232605 739.873840,488.661438 
	C738.921631,488.853455 737.969421,489.045502 736.227173,489.134827 
	C733.239380,489.506348 731.041626,489.980499 728.843811,490.454651 
	C727.850159,490.530090 726.856506,490.671570 725.862854,490.671539 
	C673.252991,490.670013 620.643127,490.656525 567.480835,490.229675 
	C566.588013,487.207977 566.247620,484.600891 565.947510,481.532867 
	C566.048889,477.085632 566.109924,473.099304 566.628174,469.086700 
	C585.415161,469.043701 603.744934,469.019073 622.074768,469.012360 
	C644.237488,469.004272 666.400208,469.029053 688.562927,469.000977 
	C695.165527,468.992615 698.981506,465.597015 698.983765,459.685455 
	C699.006836,399.529510 699.010559,339.373596 698.942688,279.217712 
	C698.940979,277.743286 698.051331,276.269867 697.457153,274.442993 
	C695.878357,269.800354 692.408752,269.157715 688.521362,269.159088 
	C653.192932,269.171631 617.864441,269.157471 582.536072,269.196228 
	C581.088318,269.197815 579.151306,269.135406 578.275574,269.973572 
	C573.613892,274.435150 569.218018,279.174500 564.411438,283.912292 
	C560.435242,287.766083 556.777771,291.525269 552.824890,295.588013 
	C559.632690,301.748230 566.236206,307.723602 573.012024,313.854858 
	C571.586182,315.698364 570.533203,316.946808 569.603943,318.281403 
	C565.946838,323.533539 562.328735,328.812775 558.457214,334.290649 
	C554.336731,339.114075 550.455200,343.728821 546.329224,348.514099 
	C543.371216,351.942688 540.690735,355.229004 537.936340,358.452240 
	C533.704773,363.404083 529.422424,368.312561 525.027100,372.861694 
	C525.265320,370.681519 525.638123,368.879059 526.087219,366.723328 
	C526.988831,364.993225 528.108215,363.711670 528.590149,362.223633 
	C531.150818,354.317139 533.551636,346.358887 535.914062,338.072266 
	C537.138184,333.052795 538.456055,328.379578 540.043640,323.453461 
	C543.478638,319.893829 540.686340,318.226227 538.395630,316.562744 
	C531.305542,311.414062 524.163879,306.336426 516.496155,300.839722 
	C520.491821,296.294586 524.255859,292.170319 527.802002,287.866577 
	C528.667908,286.815704 528.819702,285.176483 529.214722,283.477234 
	C526.039734,279.888977 522.803223,276.755798 519.903076,273.337280 
	C517.207397,270.159729 514.133179,269.041290 509.906860,269.063232 
	C476.248199,269.238190 442.588196,269.161041 408.928619,269.162750 
	C403.596405,269.163025 398.260559,269.049408 392.933044,269.209991 
	C387.641327,269.369568 385.028961,272.030518 384.775574,277.180084 
	C384.571167,281.333679 384.300140,285.490631 384.295258,289.646362 
	C384.256134,322.806000 384.253448,355.965759 384.280640,389.125427 
	C384.298004,410.285187 384.385284,431.444885 384.309143,453.083984 
	C383.512909,468.020416 384.446442,469.002014 398.664062,469.013977 
	C436.044952,469.045441 473.425873,469.090149 510.856201,469.577911 
	C510.956329,474.019867 511.007019,478.013458 511.043030,482.425659 
	C510.690613,485.424530 510.352844,488.004791 510.015076,490.585052 
	C446.029022,490.599091 382.042999,490.613098 317.431488,490.226196 
	C314.409332,489.670685 312.012665,489.516113 309.615967,489.361572 
	C308.356750,489.215698 307.097504,489.069824 305.382202,488.475403 
	C304.128082,487.857422 303.330017,487.687988 302.531982,487.518524 
	C302.190216,487.463806 301.848480,487.409088 301.121002,486.936218 
	C298.763062,485.728180 296.790863,484.938324 294.818634,484.148468 
	C294.818634,484.148468 294.415344,484.068298 294.181549,483.636902 
	C292.066376,482.089203 290.184998,480.972900 288.303619,479.856598 
	C270.699432,465.378479 264.041504,446.410034 266.871552,424.311371 
	C269.693756,402.273865 280.849518,385.759125 302.186737,377.488983 
	C306.431305,375.843811 311.218750,375.529816 315.790894,374.831024 
	C317.823242,374.520416 319.942535,374.778595 322.185181,374.778595 
	C320.511688,366.629669 318.845459,365.155396 312.066986,365.153961 
	C293.736969,365.150055 275.386963,364.607880 257.081696,365.280823 
	C230.368866,366.262817 211.029480,346.361633 205.405624,324.939575 
	C203.859100,319.048645 203.026672,312.808655 202.964554,306.717651 
	C202.701233,280.891724 202.788361,255.061432 202.872055,229.233139 
	C202.928497,211.814224 208.548676,196.554810 221.304428,184.356064 
	C229.630707,176.393356 239.528198,171.674606 252.024841,170.917816 
	C296.563354,170.943039 340.228424,170.960144 383.893524,170.971725 
	C386.714569,170.972473 389.154205,170.848068 391.129944,173.952652 
	C404.719177,195.305878 424.403412,205.633026 449.650299,206.004166 
	C458.280273,206.131042 466.984131,206.621826 475.500061,207.941360 
	C491.293274,210.388535 499.160767,218.292831 498.485016,231.053482 
	C497.881958,242.441345 501.447693,245.567642 512.990967,245.143860 
	C517.640442,244.973190 522.270935,244.269287 526.920288,244.112167 
	C540.353394,243.658218 550.837341,259.907379 542.315796,270.775635 
	C541.732178,271.519928 541.806335,272.779877 541.345642,274.808105 
	C543.727417,273.815063 545.315369,273.395142 546.642639,272.560638 
	C555.834473,266.781464 560.861023,258.710724 559.845276,247.558395 
	C559.031677,238.626205 549.747314,228.846176 539.386169,225.793854 
	C533.314880,224.005280 532.188965,220.967941 536.404663,216.218018 
	C538.405151,213.964066 541.227417,211.678406 544.037903,211.068634 
	C549.316406,209.923401 554.888184,209.374527 560.282715,209.651962 
	C582.384827,210.788666 604.463013,213.334717 626.555908,213.400345 
	C643.764465,213.451447 661.171265,211.703156 678.150513,208.781525 
	C703.554382,204.410263 726.376160,193.900589 744.522339,174.789276 
	C745.842346,173.399078 747.517944,172.346527 749.344055,171.396805 
	C755.770691,171.439468 761.881470,171.222275 767.992188,171.005066 
	C769.999939,171.094971 772.007690,171.184875 774.564026,171.700867 
	C776.200928,172.296555 777.289185,172.466171 778.377502,172.635788 
	C778.738892,172.675674 779.100342,172.715561 779.920776,173.120529 
	C782.623230,174.294968 784.866760,175.104324 787.110229,175.913696 
	C787.110229,175.913696 787.535645,175.998138 787.810547,176.417633 
	C788.846863,177.111969 789.608215,177.386826 790.369568,177.661682 
	C793.773987,180.264877 797.178406,182.868073 800.815430,186.050262 
	C801.703613,187.081238 802.359070,187.533218 803.014526,187.985199 
	C804.864441,190.508514 806.714355,193.031815 808.733398,196.165588 
	C809.480103,197.562607 810.057739,198.349136 810.635376,199.135681 
	C810.834717,199.447357 811.034119,199.759003 811.200439,200.670441 
	C811.685791,201.881683 812.204163,202.493134 812.722595,203.104584 
	C812.865784,203.458557 813.008911,203.812531 813.106445,204.848785 
	C814.161194,208.409988 815.261536,211.288895 816.361938,214.167801 
	C816.508911,214.883362 816.655945,215.598938 816.548950,216.950623 
	C816.878601,221.058197 817.462219,224.529648 818.045837,228.001099 
	C818.045837,245.251709 818.045837,262.502319 818.045837,280.519287 
	C838.465271,280.519287 858.201538,280.519287 878.564209,280.900940 
	C881.786621,281.556976 884.382629,281.831390 886.978638,282.105774 
	C887.402893,282.145416 887.827209,282.185059 888.662598,282.640350 
	C889.855591,283.229675 890.637451,283.403351 891.419250,283.577026 
	C892.053833,283.702576 892.688416,283.828125 893.693726,284.416779 
	C894.850708,285.111420 895.636841,285.342957 896.423035,285.574463 
	C896.767334,285.691833 897.111572,285.809174 897.751404,286.412079 
	C899.440247,287.535400 900.833618,288.173187 902.226929,288.810944 
	C906.114319,292.266205 910.001709,295.721436 913.997742,299.805603 
	C914.714355,300.965424 915.322388,301.496307 915.930359,302.027222 
	C917.611267,304.740906 919.292175,307.454559 921.008362,310.870056 
	C921.928406,313.085541 922.813293,314.599121 923.698181,316.112701 
	C923.877930,316.748657 924.057678,317.384613 924.160522,318.698669 
	C924.588440,320.294952 925.093262,321.213135 925.598083,322.131317 
	C925.685913,322.549622 925.773743,322.967926 925.620728,323.944946 
	C926.012695,326.727570 926.645447,328.951416 927.278198,331.175293 
	C927.357239,335.765656 927.436340,340.356018 927.134155,345.557861 
	C926.463745,348.438263 926.174622,350.707153 925.885498,352.976044 
	C925.854614,353.402039 925.823730,353.828033 925.376465,354.682556 
	C924.741089,356.184723 924.522217,357.258362 924.303345,358.331970 
	C924.199707,358.984222 924.096130,359.636505 923.533020,360.672485 
	C922.433044,362.768097 921.792603,364.479950 921.152161,366.191833 
	C918.537354,370.279480 915.922546,374.367157 912.730652,378.730194 
	C911.102356,380.331818 910.051147,381.658081 908.999878,382.984314 
	C907.920288,383.948456 906.840698,384.912628 905.155701,385.983795 
	C904.017639,386.687256 903.484985,387.283752 902.952393,387.880249 
z"/>
<path fill="#D5FCFC" opacity="1.000000" stroke="none" 
	d="
M749.028137,171.136963 
	C747.517944,172.346527 745.842346,173.399078 744.522339,174.789276 
	C726.376160,193.900589 703.554382,204.410263 678.150513,208.781525 
	C661.171265,211.703156 643.764465,213.451447 626.555908,213.400345 
	C604.463013,213.334717 582.384827,210.788666 560.282715,209.651962 
	C554.888184,209.374527 549.316406,209.923401 544.037903,211.068634 
	C541.227417,211.678406 538.405151,213.964066 536.404663,216.218018 
	C532.188965,220.967941 533.314880,224.005280 539.386169,225.793854 
	C549.747314,228.846176 559.031677,238.626205 559.845276,247.558395 
	C560.861023,258.710724 555.834473,266.781464 546.642639,272.560638 
	C545.315369,273.395142 543.727417,273.815063 541.345642,274.808105 
	C541.806335,272.779877 541.732178,271.519928 542.315796,270.775635 
	C550.837341,259.907379 540.353394,243.658218 526.920288,244.112167 
	C522.270935,244.269287 517.640442,244.973190 512.990967,245.143860 
	C501.447693,245.567642 497.881958,242.441345 498.485016,231.053482 
	C499.160767,218.292831 491.293274,210.388535 475.500061,207.941360 
	C466.984131,206.621826 458.280273,206.131042 449.650299,206.004166 
	C424.403412,205.633026 404.719177,195.305878 391.129944,173.952652 
	C389.154205,170.848068 386.714569,170.972473 383.893524,170.971725 
	C340.228424,170.960144 296.563354,170.943039 252.443970,170.804474 
	C253.871017,170.126389 255.751297,169.090546 257.633881,169.086304 
	C298.957458,168.992920 340.281342,169.013977 381.605133,169.013123 
	C383.557648,169.013077 385.510193,169.013123 386.949646,169.013123 
	C385.922943,161.066513 384.251099,153.676147 384.175232,146.269440 
	C384.054413,134.472672 388.730835,123.832184 395.907166,114.798737 
	C413.346832,92.845802 436.564606,78.538383 461.659119,66.944496 
	C475.283600,60.649868 489.344788,55.744549 503.827240,51.648151 
	C522.024414,46.501026 540.394409,42.417164 559.175354,41.168385 
	C580.703003,39.736965 602.372253,38.458141 623.884460,39.369179 
	C642.779175,40.169361 661.662231,43.431370 680.319519,46.861984 
	C692.239197,49.053722 703.986389,52.870571 715.367249,57.141083 
	C731.397888,63.156364 745.862000,72.296806 755.691040,86.562721 
	C764.747192,99.706909 769.772522,114.432129 767.277039,131.063858 
	C765.361877,143.827957 760.489502,155.044189 752.576477,165.097748 
	C751.565613,166.382126 750.894104,167.933624 749.824463,169.862518 
	C749.296265,170.548096 749.111145,170.805862 749.028137,171.136963 
M510.203186,143.035660 
	C510.816406,145.442062 511.243103,147.915421 512.078247,150.242172 
	C514.483398,156.943344 519.997498,160.289825 527.263916,159.667191 
	C533.541016,159.129333 539.171143,154.069656 539.742493,147.424911 
	C540.248718,141.537415 540.374756,135.482193 539.580872,129.649048 
	C538.329285,120.452934 531.972290,115.624733 523.406433,116.295311 
	C515.720398,116.897018 510.493927,122.883789 510.143402,131.668625 
	C510.004486,135.150162 510.141876,138.642731 510.203186,143.035660 
M546.171204,123.920967 
	C544.013550,133.645782 544.422668,143.067047 550.008057,151.665497 
	C552.882935,156.091202 557.418884,157.910751 562.484009,157.235123 
	C568.439819,156.440689 573.185730,153.492157 574.764771,147.188309 
	C576.663269,139.608749 576.158997,132.104309 573.727722,124.670784 
	C571.737244,118.584908 568.058350,114.567177 561.388062,114.117958 
	C554.339600,113.643265 549.158081,116.449905 546.171204,123.920967 
M579.964417,127.523003 
	C580.509277,134.516571 581.201843,141.473297 585.476501,147.429489 
	C589.273438,152.720062 594.589172,153.790985 600.560547,152.590576 
	C605.746033,151.548141 610.264221,146.539948 610.882263,141.011795 
	C611.745239,133.293747 611.096680,125.724213 607.821106,118.536064 
	C604.658020,111.594788 597.808533,108.403046 590.499939,110.495049 
	C583.421997,112.521019 580.433411,117.091064 579.964417,127.523003 
M503.758423,127.958061 
	C500.445923,119.977890 496.516663,117.006279 489.460693,117.144974 
	C482.758423,117.276726 478.077484,120.670479 475.954681,127.666496 
	C473.741089,134.961807 473.672607,142.473877 475.780396,149.802765 
	C477.794586,156.806274 483.483185,160.866745 490.154877,160.693649 
	C496.747345,160.522598 502.391541,156.650208 503.564697,149.455399 
	C504.663605,142.716064 503.879395,135.669662 503.758423,127.958061 
M469.074585,137.416428 
	C469.006500,134.087769 469.125916,130.742371 468.830231,127.434044 
	C468.262695,121.085091 464.075592,116.345833 458.247162,115.096474 
	C451.216858,113.589478 445.295013,116.060135 442.180969,122.131287 
	C438.195892,129.900650 438.090698,138.220322 439.966980,146.460693 
	C441.675934,153.966064 446.162323,157.642502 452.518341,157.912766 
	C460.618805,158.257187 464.628967,155.673904 467.448090,147.619080 
	C468.467896,144.705322 468.555969,141.465485 469.074585,137.416428 
M661.918518,105.038284 
	C665.234802,108.320824 666.893555,104.542442 668.831482,103.113861 
	C669.365906,102.719879 668.974487,100.012886 668.179199,99.055374 
	C664.764282,94.943344 658.532532,94.230461 652.516846,96.910828 
	C647.011597,99.363739 644.442383,103.944160 645.056396,110.211288 
	C645.598267,115.741928 648.994568,119.486763 654.829346,120.734375 
	C657.098816,121.219635 659.526306,121.080490 661.726379,121.742256 
	C663.781982,122.360535 665.878967,123.395439 667.424927,124.823700 
	C667.903015,125.265366 666.950867,128.601166 666.104919,128.867203 
	C663.927429,129.551987 660.550659,130.296768 659.243103,129.170929 
	C654.739929,125.293526 652.288330,128.270798 649.354370,130.721802 
	C653.081482,140.306305 665.766968,140.569641 672.807678,134.360870 
	C676.387573,131.203949 678.349304,127.104263 677.206665,122.322617 
	C676.033325,117.411980 673.420776,113.389618 667.888489,112.429756 
	C664.456055,111.834213 660.890564,111.759247 657.588867,110.769669 
	C656.132629,110.333229 655.183350,108.205421 654.003906,106.845505 
	C655.512024,105.768852 656.925903,104.491280 658.575989,103.717255 
	C659.210754,103.419525 660.383179,104.268150 661.918518,105.038284 
M642.407654,111.519653 
	C638.661804,103.624496 636.136536,102.111893 627.632874,103.172348 
	C623.685303,103.664635 619.730835,104.355629 615.904968,105.411346 
	C614.789246,105.719215 613.177551,107.779732 613.365234,108.724655 
	C615.880066,121.387451 618.673828,133.994843 621.490173,147.041641 
	C624.823059,146.494278 627.652405,146.029633 630.688232,145.531067 
	C629.650208,140.073715 628.737366,135.274673 627.835022,130.530457 
	C642.039185,126.913681 643.785095,124.694664 642.407654,111.519653 
M699.385010,118.334206 
	C700.014343,119.866646 700.316284,121.705269 701.374329,122.836739 
	C702.253906,123.777222 704.312927,124.610458 705.332581,124.201729 
	C707.061401,123.508705 709.709778,121.672485 709.601685,120.543762 
	C709.371094,118.136108 707.622437,115.873833 706.495728,113.551987 
	C704.070862,114.909668 701.645935,116.267349 699.385010,118.334206 
M691.669495,130.025726 
	C695.785950,128.550385 692.916565,125.911537 692.429199,123.961021 
	C692.106201,122.668449 690.369873,120.631500 689.577881,120.765778 
	C687.462524,121.124420 684.108093,122.168907 683.818542,123.500351 
	C683.338501,125.707222 684.493225,128.585846 685.777893,130.679153 
	C686.195435,131.359528 689.171509,130.469772 691.669495,130.025726 
M718.479614,107.284912 
	C717.023438,108.230141 714.200745,109.546524 714.339783,110.058434 
	C715.068298,112.740479 716.547302,115.218681 717.765503,117.767723 
	C720.020691,116.478424 723.100830,115.702324 724.308289,113.761276 
	C725.619629,111.653061 721.696167,107.114410 718.479614,107.284912 
z"/>
<path fill="#EBEBEB" opacity="1.000000" stroke="none" 
	d="
M566.341248,500.952545 
	C580.792358,501.306946 595.254028,501.427765 609.691833,502.077850 
	C625.905457,502.807861 642.130066,503.655670 658.290039,505.115448 
	C675.068115,506.631042 691.745850,509.245209 708.519836,510.821350 
	C727.549011,512.609375 746.155518,516.310974 764.340332,522.034485 
	C768.808044,523.440674 773.033508,525.943726 777.005676,528.507568 
	C781.219360,531.227173 781.674316,535.831604 777.583801,538.651611 
	C772.911377,541.872742 767.638367,544.806580 762.198853,546.217896 
	C747.836548,549.944641 733.366333,553.626770 718.711182,555.762878 
	C699.098816,558.621582 679.299683,560.361145 659.528748,561.922974 
	C640.866943,563.397339 622.148804,564.443909 603.436035,564.926819 
	C566.210144,565.887756 528.972839,566.622803 491.736511,566.858582 
	C474.998383,566.964600 458.243347,565.798523 441.510529,564.929932 
	C426.464783,564.148987 411.412537,563.273010 396.412567,561.899414 
	C384.411194,560.800415 372.484467,558.887695 360.523773,557.342590 
	C351.839142,556.220825 343.011383,555.747131 334.498688,553.854492 
	C319.083679,550.427185 303.016693,548.814819 289.226318,540.071838 
	C283.412109,536.385620 282.941620,531.318665 288.879700,528.012146 
	C295.709747,524.209045 303.200500,521.149109 310.774780,519.225159 
	C323.544006,515.981689 336.539276,513.466309 349.562347,511.430573 
	C362.284424,509.441864 375.140259,508.216339 387.973389,507.053375 
	C404.945160,505.515350 421.949219,504.326843 438.945190,503.066132 
	C445.225250,502.600311 451.517822,502.197205 457.811523,502.040955 
	C474.925720,501.616119 492.043518,501.338501 509.674683,501.458496 
	C510.124054,504.272919 510.058655,506.631409 509.525208,509.004913 
	C483.076263,509.091003 457.095337,509.162079 430.705933,509.230804 
	C429.895447,509.706024 429.148712,510.179382 429.142792,510.661804 
	C429.047455,518.442810 429.016266,526.225342 429.107269,534.005859 
	C429.112122,534.421204 430.327271,534.822449 431.386902,535.300659 
	C433.789307,535.463928 435.783783,535.637512 437.778290,535.637939 
	C505.240326,535.651855 572.702393,535.653809 640.164429,535.626831 
	C642.142578,535.626038 644.120544,535.295471 646.492737,535.025818 
	C647.105103,526.618347 647.336792,518.303955 647.470337,509.987946 
	C647.473999,509.762268 646.418945,509.519562 645.406006,509.196198 
	C618.966003,509.081177 592.977478,509.054718 566.822083,508.662079 
	C566.550537,505.848114 566.445862,503.400330 566.341248,500.952545 
z"/>
<path fill="#98B9CB" opacity="1.000000" stroke="none" 
	d="
M871.000000,445.940430 
	C850.670105,445.940704 830.840027,445.979156 811.010315,445.920349 
	C804.209290,445.900177 799.129272,442.484711 796.873047,436.746429 
	C794.810059,431.499603 796.347900,424.451050 800.931824,420.845306 
	C802.874268,419.317383 805.666138,418.063019 808.076416,418.055237 
	C857.067444,417.896942 906.059143,417.907593 955.050537,417.972382 
	C962.087341,417.981689 967.121521,423.945374 967.123596,431.737061 
	C967.125732,439.692200 961.474060,445.785980 953.485291,445.884430 
	C939.656372,446.054871 925.823975,445.938568 911.993042,445.940216 
	C898.495361,445.941833 884.997681,445.940552 871.000000,445.940430 
z"/>
<path fill="#99B9CB" opacity="1.000000" stroke="none" 
	d="
M185.000000,406.191406 
	C204.310333,406.192352 223.122452,406.034393 241.930374,406.247375 
	C255.381271,406.399689 260.473602,418.679779 255.026535,428.608307 
	C252.587860,433.053375 248.495590,434.881683 243.379211,434.872742 
	C211.418396,434.816895 179.457443,434.863281 147.496536,434.846710 
	C138.264374,434.841949 132.240250,429.305786 132.173904,420.884735 
	C132.106125,412.282776 138.191284,406.327667 147.545593,406.223755 
	C159.862335,406.086853 172.181732,406.190796 185.000000,406.191406 
z"/>
<path fill="#9ABACB" opacity="1.000000" stroke="none" 
	d="
M862.004272,265.837463 
	C855.446106,265.285095 849.158691,265.557983 843.388245,263.961792 
	C836.882080,262.162079 834.528320,255.265823 836.159302,246.893433 
	C837.081787,242.157944 842.818054,237.220108 848.121887,237.194580 
	C870.448303,237.087082 892.776611,237.032974 915.102051,237.219025 
	C922.451965,237.280273 928.048462,244.303391 927.833008,252.304581 
	C927.636292,259.610260 921.441345,265.777435 913.988464,265.809509 
	C896.826965,265.883362 879.664978,265.835846 862.004272,265.837463 
z"/>
<path fill="#7DA0C5" opacity="1.000000" stroke="none" 
	d="
M566.228882,500.515503 
	C566.445862,503.400330 566.550537,505.848114 566.565186,508.911072 
	C563.533691,509.346527 560.592529,509.020721 557.650391,509.011322 
	C541.764771,508.960876 525.878967,508.988953 509.993225,508.989899 
	C510.058655,506.631409 510.124054,504.272919 510.150024,501.475769 
	C510.138397,497.872925 510.166260,494.708710 510.104614,491.064789 
	C510.352844,488.004791 510.690613,485.424530 511.505249,482.424652 
	C529.957092,482.001282 547.932129,481.997559 565.907166,481.993805 
	C566.247620,484.600891 566.588013,487.207977 567.024292,490.175812 
	C566.785583,493.717194 566.451050,496.897858 566.228882,500.515503 
z"/>
<path fill="#9ABACB" opacity="1.000000" stroke="none" 
	d="
M133.218628,390.022522 
	C128.323090,390.670715 126.866982,388.713226 127.106560,384.373108 
	C127.417587,378.738861 127.266617,373.072968 127.154976,367.423828 
	C127.086655,363.966400 128.342270,362.077393 132.027039,362.090912 
	C143.828201,362.134247 155.629639,362.100800 167.430923,362.116791 
	C170.650635,362.121155 172.241150,363.519012 172.132629,367.002411 
	C171.946396,372.980408 171.870346,378.978241 172.152039,384.948639 
	C172.336182,388.851776 171.098190,390.189972 167.100189,390.105286 
	C155.968658,389.869598 144.828918,390.023010 133.218628,390.022522 
z"/>
<path fill="#9EBDCE" opacity="1.000000" stroke="none" 
	d="
M340.089355,120.544456 
	C340.189301,116.462852 339.336548,111.939850 341.141296,109.114334 
	C343.959869,104.701675 349.685516,105.167267 353.233276,108.884773 
	C356.588623,112.400681 356.599030,118.875809 353.254395,122.020439 
	C349.004608,126.016022 344.862427,125.645470 340.089355,120.544456 
z"/>
<path fill="#9EBCCE" opacity="1.000000" stroke="none" 
	d="
M115.319641,359.899414 
	C110.505745,356.980896 110.192818,352.732147 111.532921,348.393250 
	C112.643021,344.799072 115.265121,342.833160 119.463448,343.048279 
	C124.971909,343.330475 127.970818,346.404175 127.857246,352.334015 
	C127.756149,357.612000 124.230103,361.064117 119.057526,360.818268 
	C117.925896,360.764496 116.814026,360.294800 115.319641,359.899414 
z"/>
<path fill="#9FBDCF" opacity="1.000000" stroke="none" 
	d="
M876.491211,224.814972 
	C872.817200,221.289597 872.163940,217.500244 874.012146,213.236893 
	C875.786865,209.143036 879.238770,208.797653 883.110718,208.929031 
	C887.756653,209.086639 889.443542,211.919067 889.831238,215.898911 
	C890.371887,221.448730 888.136719,225.418945 884.034546,225.818390 
	C881.666443,226.048950 879.208374,225.356293 876.491211,224.814972 
z"/>
<path fill="#A3C0D0" opacity="1.000000" stroke="none" 
	d="
M241.489258,387.646057 
	C240.636826,391.498535 238.178268,393.721283 235.032578,392.445679 
	C232.970779,391.609619 230.813293,388.452484 230.697327,386.230560 
	C230.613251,384.619659 233.577682,381.788147 235.585144,381.351654 
	C239.701340,380.456665 241.388336,383.463898 241.489258,387.646057 
z"/>
<path fill="#A3C0D0" opacity="1.000000" stroke="none" 
	d="
M944.520325,275.489258 
	C939.805603,275.929932 937.427795,273.297241 937.405640,269.518311 
	C937.385559,266.103210 939.735046,263.438232 943.675354,264.176788 
	C945.176270,264.458099 947.221741,265.908539 947.608337,267.236816 
	C948.493591,270.277985 948.565063,273.591644 944.520325,275.489258 
z"/>
<path fill="#A1BFD0" opacity="1.000000" stroke="none" 
	d="
M862.112915,458.094299 
	C864.307983,459.441101 867.047546,460.458038 867.703796,462.241547 
	C868.922363,465.553162 867.327759,468.952759 863.608276,469.245819 
	C861.690002,469.396973 858.523132,467.408875 857.766541,465.610657 
	C856.386292,462.330566 857.396240,459.031494 862.112915,458.094299 
z"/>
<path fill="#9EBCCE" opacity="1.000000" stroke="none" 
	d="
M359.114349,155.105759 
	C356.094147,156.578781 353.146393,157.260651 350.961914,153.817047 
	C349.021545,150.758286 350.176178,148.490265 353.737244,146.803711 
	C355.281921,146.562912 356.138733,146.314926 356.995575,146.066925 
	C357.987305,146.791138 358.979065,147.515335 360.001221,148.963425 
	C359.725891,151.493454 359.420135,153.299606 359.114349,155.105759 
z"/>
<path fill="#ADC7D5" opacity="1.000000" stroke="none" 
	d="
M834.442688,459.546631 
	C832.488403,459.086090 830.885071,458.437622 829.281799,457.789154 
	C829.895996,456.395813 830.211792,454.684235 831.233887,453.725861 
	C831.870117,453.129303 834.606079,453.516418 834.638000,453.727966 
	C834.916138,455.570740 834.795654,457.473694 834.442688,459.546631 
z"/>
<path fill="#ADC7D5" opacity="1.000000" stroke="none" 
	d="
M324.362244,141.114243 
	C326.122162,141.863037 328.190857,142.418442 328.650238,143.599670 
	C329.029938,144.576187 327.817596,146.731400 326.710022,147.511124 
	C326.072876,147.959656 323.273193,146.889847 323.144440,146.190796 
	C322.856628,144.628418 323.632141,142.870163 324.362244,141.114243 
z"/>
<path fill="#A3C0D0" opacity="1.000000" stroke="none" 
	d="
M206.945312,383.013000 
	C205.391251,381.832214 203.931351,380.756622 203.246750,379.313324 
	C202.970001,378.729828 204.192627,376.788574 205.086670,376.475494 
	C206.007355,376.153168 208.361084,377.080231 208.354568,377.428131 
	C208.319809,379.281189 207.741348,381.124054 206.945312,383.013000 
z"/>
<path fill="#7DA0C5" opacity="1.000000" stroke="none" 
	d="
M749.344055,171.396790 
	C749.111145,170.805862 749.296265,170.548096 749.774780,170.215454 
	C755.766418,170.202667 761.566711,170.338089 767.679626,170.739304 
	C761.881470,171.222275 755.770691,171.439468 749.344055,171.396790 
z"/>
<path fill="#A1BFD0" opacity="1.000000" stroke="none" 
	d="
M955.321716,258.430298 
	C957.054443,257.649475 958.704773,256.708466 960.150940,256.956635 
	C960.917969,257.088287 961.998657,259.470398 961.713196,260.495667 
	C961.435303,261.493744 959.047363,262.948639 958.545532,262.640442 
	C957.148560,261.782440 956.249878,260.113251 955.321716,258.430298 
z"/>
<path fill="#7DA0C5" opacity="1.000000" stroke="none" 
	d="
M818.256714,227.687454 
	C817.462219,224.529648 816.878601,221.058197 816.542542,217.317337 
	C817.349304,220.489883 817.908447,223.931854 818.256714,227.687454 
z"/>
<path fill="#7DA0C5" opacity="1.000000" stroke="none" 
	d="
M776.549194,414.808594 
	C774.983093,411.966309 773.535583,408.764557 772.127747,405.177979 
	C773.667603,408.011780 775.167725,411.230438 776.549194,414.808594 
z"/>
<path fill="#7DA0C5" opacity="1.000000" stroke="none" 
	d="
M816.511536,213.806183 
	C815.261536,211.288895 814.161194,208.409988 813.145020,205.133850 
	C814.373291,207.639282 815.517212,210.541916 816.511536,213.806183 
z"/>
<path fill="#7DA0C5" opacity="1.000000" stroke="none" 
	d="
M886.720520,281.839966 
	C884.382629,281.831390 881.786621,281.556976 879.006104,281.008850 
	C881.368469,281.014832 883.915466,281.294495 886.720520,281.839966 
z"/>
<path fill="#7DA0C5" opacity="1.000000" stroke="none" 
	d="
M926.162109,352.733215 
	C926.174622,350.707153 926.463745,348.438263 927.023438,345.997620 
	C927.008911,348.047363 926.723755,350.268890 926.162109,352.733215 
z"/>
<path fill="#7DA0C5" opacity="1.000000" stroke="none" 
	d="
M729.244019,490.613037 
	C731.041626,489.980499 733.239380,489.506348 735.861328,489.142639 
	C734.071716,489.759186 731.857971,490.265289 729.244019,490.613037 
z"/>
<path fill="#7DA0C5" opacity="1.000000" stroke="none" 
	d="
M309.824463,489.682800 
	C312.012665,489.516113 314.409332,489.670685 316.980164,490.152161 
	C314.780518,490.320770 312.406738,490.162415 309.824463,489.682800 
z"/>
<path fill="#7DA0C5" opacity="1.000000" stroke="none" 
	d="
M927.452393,330.813416 
	C926.645447,328.951416 926.012695,326.727570 925.618042,324.266479 
	C926.446289,326.169983 927.036377,328.310760 927.452393,330.813416 
z"/>
<path fill="#7DA0C5" opacity="1.000000" stroke="none" 
	d="
M787.012146,175.593109 
	C784.866760,175.104324 782.623230,174.294968 780.184753,173.190094 
	C782.297852,173.687225 784.605957,174.479874 787.012146,175.593109 
z"/>
<path fill="#7DA0C5" opacity="1.000000" stroke="none" 
	d="
M778.377014,423.752197 
	C777.589966,422.169006 776.999146,420.321167 776.656128,418.247925 
	C777.460388,419.844208 778.016785,421.665894 778.377014,423.752197 
z"/>
<path fill="#7DA0C5" opacity="1.000000" stroke="none" 
	d="
M294.938232,484.452515 
	C296.790863,484.938324 298.763062,485.728180 300.874786,486.852844 
	C299.028778,486.377289 297.043304,485.566925 294.938232,484.452515 
z"/>
<path fill="#7DA0C5" opacity="1.000000" stroke="none" 
	d="
M777.174927,446.778137 
	C777.131104,445.106812 777.358337,443.235291 777.878784,441.171570 
	C777.929993,442.845581 777.688049,444.711731 777.174927,446.778137 
z"/>
<path fill="#CADAE4" opacity="1.000000" stroke="none" 
	d="
M359.450623,155.011139 
	C359.420135,153.299606 359.725891,151.493454 360.081116,149.286621 
	C363.739136,151.108368 361.542389,152.999863 359.450623,155.011139 
z"/>
<path fill="#7DA0C5" opacity="1.000000" stroke="none" 
	d="
M288.356934,480.181793 
	C290.184998,480.972900 292.066376,482.089203 294.002228,483.536316 
	C292.174561,482.747101 290.292419,481.627045 288.356934,480.181793 
z"/>
<path fill="#7DA0C5" opacity="1.000000" stroke="none" 
	d="
M882.246460,396.312744 
	C883.813965,395.507141 885.636658,394.898834 887.702148,394.510681 
	C886.130554,395.323914 884.316040,395.916962 882.246460,396.312744 
z"/>
<path fill="#7DA0C5" opacity="1.000000" stroke="none" 
	d="
M894.291077,392.882263 
	C895.857178,391.628448 897.779907,390.422150 900.072388,389.330505 
	C898.510681,390.606720 896.579163,391.768250 894.291077,392.882263 
z"/>
<path fill="#7DA0C5" opacity="1.000000" stroke="none" 
	d="
M751.284058,483.870544 
	C752.465210,482.599121 753.992188,481.347656 755.878052,480.145416 
	C754.701172,481.426575 753.165527,482.658539 751.284058,483.870544 
z"/>
<path fill="#7DA0C5" opacity="1.000000" stroke="none" 
	d="
M909.333374,382.948822 
	C910.051147,381.658081 911.102356,380.331818 912.481140,378.962128 
	C911.761353,380.250214 910.714050,381.581757 909.333374,382.948822 
z"/>
<path fill="#7DA0C5" opacity="1.000000" stroke="none" 
	d="
M921.476196,366.082703 
	C921.792603,364.479950 922.433044,362.768097 923.406189,360.977966 
	C923.092651,362.591003 922.446472,364.282257 921.476196,366.082703 
z"/>
<path fill="#7DA0C5" opacity="1.000000" stroke="none" 
	d="
M923.748901,315.759766 
	C922.813293,314.599121 921.928406,313.085541 921.082336,311.208862 
	C922.013977,312.366150 922.906860,313.886505 923.748901,315.759766 
z"/>
<path fill="#7DA0C5" opacity="1.000000" stroke="none" 
	d="
M766.172363,470.631287 
	C766.539185,469.456085 767.227051,468.235565 768.215027,466.925751 
	C767.841187,468.086304 767.167236,469.336121 766.172363,470.631287 
z"/>
<path fill="#7DA0C5" opacity="1.000000" stroke="none" 
	d="
M902.105530,288.501221 
	C900.833618,288.173187 899.440247,287.535400 897.974609,286.570709 
	C899.262878,286.893036 900.623474,287.542297 902.105530,288.501221 
z"/>
<path fill="#7DA0C5" opacity="1.000000" stroke="none" 
	d="
M760.333435,476.964966 
	C760.779358,476.016785 761.551453,475.027405 762.664673,474.024994 
	C762.223755,474.982574 761.441711,475.953156 760.333435,476.964966 
z"/>
<path fill="#7DA0C5" opacity="1.000000" stroke="none" 
	d="
M744.100220,487.400970 
	C744.827637,486.596252 745.846130,485.932648 747.178467,485.422943 
	C746.458618,486.231934 745.424988,486.886993 744.100220,487.400970 
z"/>
<path fill="#7DA0C5" opacity="1.000000" stroke="none" 
	d="
M924.603088,358.166901 
	C924.522217,357.258362 924.741089,356.184723 925.286865,354.990906 
	C925.376770,355.914429 925.139771,356.958130 924.603088,358.166901 
z"/>
<path fill="#7DA0C5" opacity="1.000000" stroke="none" 
	d="
M925.708740,321.802826 
	C925.093262,321.213135 924.588440,320.294952 924.185974,319.030029 
	C924.798706,319.613617 925.309082,320.543976 925.708740,321.802826 
z"/>
<path fill="#7DA0C5" opacity="1.000000" stroke="none" 
	d="
M778.202271,172.338837 
	C777.289185,172.466171 776.200928,172.296555 774.979858,171.806259 
	C775.907043,171.671005 776.966980,171.856445 778.202271,172.338837 
z"/>
<path fill="#CADAE4" opacity="1.000000" stroke="none" 
	d="
M356.816223,145.814819 
	C356.138733,146.314926 355.281921,146.562912 354.081055,146.681885 
	C354.703613,146.222809 355.670227,145.892761 356.816223,145.814819 
z"/>
<path fill="#7DA0C5" opacity="1.000000" stroke="none" 
	d="
M810.692383,198.819000 
	C810.057739,198.349136 809.480103,197.562607 808.916016,196.451294 
	C809.536072,196.918442 810.142700,197.710388 810.692383,198.819000 
z"/>
<path fill="#7DA0C5" opacity="1.000000" stroke="none" 
	d="
M915.942505,301.710327 
	C915.322388,301.496307 914.714355,300.965424 914.150879,300.098511 
	C914.781799,300.306122 915.368164,300.849792 915.942505,301.710327 
z"/>
<path fill="#7DA0C5" opacity="1.000000" stroke="none" 
	d="
M812.774719,202.800262 
	C812.204163,202.493134 811.685791,201.881683 811.271973,200.940353 
	C811.859985,201.238968 812.343384,201.867447 812.774719,202.800262 
z"/>
<path fill="#7DA0C5" opacity="1.000000" stroke="none" 
	d="
M891.267700,283.297729 
	C890.637451,283.403351 889.855591,283.229675 888.965332,282.745605 
	C889.609924,282.629608 890.363037,282.824036 891.267700,283.297729 
z"/>
<path fill="#7DA0C5" opacity="1.000000" stroke="none" 
	d="
M896.257812,285.313568 
	C895.636841,285.342957 894.850708,285.111420 893.991821,284.543335 
	C894.643616,284.488708 895.368164,284.770691 896.257812,285.313568 
z"/>
<path fill="#7DA0C5" opacity="1.000000" stroke="none" 
	d="
M790.242554,177.370117 
	C789.608215,177.386826 788.846863,177.111969 788.007080,176.509247 
	C788.657654,176.480453 789.386536,176.779510 790.242554,177.370117 
z"/>
<path fill="#7DA0C5" opacity="1.000000" stroke="none" 
	d="
M903.265625,387.896973 
	C903.484985,387.283752 904.017639,386.687256 904.882690,386.135376 
	C904.669739,386.757843 904.124329,387.335754 903.265625,387.896973 
z"/>
<path fill="#7DA0C5" opacity="1.000000" stroke="none" 
	d="
M740.186401,488.755310 
	C740.457520,488.232605 741.041199,487.803772 741.788208,487.577911 
	C741.467346,488.136993 740.983215,488.493073 740.186401,488.755310 
z"/>
<path fill="#7DA0C5" opacity="1.000000" stroke="none" 
	d="
M302.703369,487.779358 
	C303.330017,487.687988 304.128082,487.857422 305.020935,488.354645 
	C304.368744,488.468323 303.621765,488.254242 302.703369,487.779358 
z"/>
<path fill="#7DA0C5" opacity="1.000000" stroke="none" 
	d="
M802.972961,187.673767 
	C802.359070,187.533218 801.703613,187.081238 801.036499,186.300308 
	C801.660400,186.435013 802.295898,186.898666 802.972961,187.673767 
z"/>
<path fill="#7DA0C5" opacity="1.000000" stroke="none" 
	d="
M890.118896,394.511292 
	C890.445374,393.948090 891.063354,393.514648 891.983887,393.166046 
	C891.661133,393.714264 891.035767,394.177643 890.118896,394.511292 
z"/>
<path fill="#7DA0C5" opacity="1.000000" stroke="none" 
	d="
M769.854797,399.736633 
	C769.308716,399.540863 768.774475,399.019073 768.407715,398.299927 
	C769.005676,398.538574 769.436157,398.974609 769.854797,399.736633 
z"/>
<path fill="#7DA0C5" opacity="1.000000" stroke="none" 
	d="
M771.633789,402.847687 
	C771.053223,402.581604 770.546631,402.014191 770.094360,401.136353 
	C770.668335,401.399384 771.188049,401.972870 771.633789,402.847687 
z"/>
<path fill="#7DA0C5" opacity="1.000000" stroke="none" 
	d="
M775.625549,452.216583 
	C775.515808,451.596588 775.690796,450.834717 776.158447,449.953400 
	C776.270813,450.580841 776.090515,451.327789 775.625549,452.216583 
z"/>
<path fill="#7DA0C5" opacity="1.000000" stroke="none" 
	d="
M770.448120,464.079346 
	C770.430176,463.469269 770.704712,462.750153 771.278442,461.941742 
	C771.298584,462.558441 771.019653,463.264374 770.448120,464.079346 
z"/>
<path fill="#7DA0C5" opacity="1.000000" stroke="none" 
	d="
M774.013672,456.806671 
	C773.891357,456.283203 774.066040,455.629089 774.507263,454.942566 
	C774.619446,455.498779 774.465027,456.087372 774.013672,456.806671 
z"/>
<path fill="#FBFBFC" opacity="1.000000" stroke="none" 
	d="
M529.299866,283.807800 
	C528.819702,285.176483 528.667908,286.815704 527.802002,287.866577 
	C524.255859,292.170319 520.491821,296.294586 516.496155,300.839722 
	C524.163879,306.336426 531.305542,311.414062 538.395630,316.562744 
	C540.686340,318.226227 543.478638,319.893829 539.625000,323.370483 
	C524.715576,323.321686 516.067627,328.576843 511.431030,341.884491 
	C504.773956,360.991211 505.033936,380.551636 510.959778,399.739136 
	C514.801086,412.176941 524.773682,418.507263 537.437744,418.412384 
	C550.371277,418.315491 558.874878,412.002991 563.410889,399.170624 
	C567.137085,388.628967 567.756226,377.671997 567.263550,366.682220 
	C566.751709,355.264038 566.097961,343.748840 558.696167,334.081970 
	C562.328735,328.812775 565.946838,323.533539 569.603943,318.281403 
	C570.533203,316.946808 571.586182,315.698364 573.012024,313.854858 
	C566.236206,307.723602 559.632690,301.748230 552.824890,295.588013 
	C556.777771,291.525269 560.435242,287.766083 564.897339,283.990845 
	C602.518982,283.986450 639.335999,283.996674 676.152954,284.010864 
	C683.808289,284.013824 685.953247,286.125610 685.953857,293.672302 
	C685.957153,338.486115 685.957031,383.299896 685.954712,428.113708 
	C685.954346,435.861420 683.907776,437.965179 676.353882,437.965393 
	C586.393127,437.967987 496.432343,437.968414 406.471558,437.964630 
	C398.755371,437.964325 397.024719,436.272034 397.023529,428.686615 
	C397.016357,383.373047 397.017700,338.059448 397.024506,292.745880 
	C397.025574,285.638824 398.647125,284.018585 405.866669,284.016113 
	C445.016266,284.002777 484.165894,284.012756 523.315491,284.001251 
	C525.310303,284.000671 527.305054,283.875153 529.299866,283.807800 
M474.499390,325.131592 
	C466.340973,325.131897 458.177826,324.991211 450.028534,325.264008 
	C448.579956,325.312469 446.176361,326.870209 445.925873,328.084290 
	C443.004150,342.243652 440.362549,356.462219 437.838074,370.699036 
	C437.668549,371.655029 438.922852,373.740082 439.715302,373.849579 
	C445.395660,374.634308 450.745575,376.786102 456.534576,372.048035 
	C464.796753,365.285675 476.774994,369.770111 478.447723,379.622955 
	C479.186401,383.973969 479.022614,388.622040 478.425201,393.020721 
	C477.623596,398.923462 473.002808,403.139862 467.600830,403.960968 
	C462.608551,404.719818 456.722351,402.213837 455.155304,396.864594 
	C453.347229,390.692505 449.635010,391.041901 445.052795,391.745544 
	C441.970581,392.218872 438.879028,392.631409 435.882599,393.058167 
	C435.510742,406.838531 448.264221,417.909790 464.602509,418.438171 
	C483.267700,419.041779 497.000488,405.992981 497.674194,386.777710 
	C497.974457,378.213135 495.969086,370.246643 489.981384,363.732422 
	C481.108032,354.078827 470.096466,352.967621 457.703918,356.707031 
	C458.158020,353.621155 458.526184,351.366272 458.816376,349.101410 
	C459.742737,341.870514 459.731567,341.868011 466.978455,341.867004 
	C475.727448,341.865814 484.476410,341.866699 493.275208,341.866699 
	C493.275208,335.909180 493.275208,330.674225 493.275208,325.131592 
	C487.118958,325.131592 481.308960,325.131592 474.499390,325.131592 
M626.470398,328.998810 
	C615.438843,321.550262 603.923767,321.516663 592.486694,327.557617 
	C584.574768,331.736633 581.333313,339.193390 580.127625,347.961700 
	C585.705383,348.869232 590.748474,349.689758 595.893555,350.526917 
	C596.762512,348.211609 597.324402,346.291534 598.181152,344.513489 
	C600.474854,339.753296 606.267151,337.232117 611.233948,338.703339 
	C615.808960,340.058533 618.255554,344.067108 617.908264,349.638855 
	C617.558838,355.244965 613.722107,358.999176 607.648132,360.039520 
	C606.059692,360.311646 603.527344,361.078369 603.274353,362.082794 
	C602.280884,366.028198 602.024414,370.159210 601.552917,373.771667 
	C606.389648,374.255341 611.013245,373.907654 615.004883,375.331482 
	C619.520081,376.942078 621.240723,381.403534 621.674377,386.212433 
	C622.425415,394.542511 618.634277,401.533051 612.379944,403.020752 
	C604.243103,404.956299 599.637085,401.538452 595.331909,390.197510 
	C591.123169,390.643188 586.850403,391.222198 582.558105,391.510162 
	C579.118408,391.740936 578.510925,393.159180 579.266907,396.413208 
	C581.712769,406.941437 590.785706,415.964447 601.253052,417.828705 
	C615.953125,420.446869 628.912354,415.479340 635.879517,404.526215 
	C643.596863,392.393860 642.050171,373.432953 625.448059,367.431641 
	C625.255554,367.362030 625.224548,366.845703 624.970032,366.109528 
	C630.601807,361.642639 635.791321,356.648895 636.099731,348.519165 
	C636.403870,340.504089 632.934143,334.437592 626.470398,328.998810 
z"/>
<path fill="#CACBF8" opacity="1.000000" stroke="none" 
	d="
M529.214722,283.477234 
	C527.305054,283.875153 525.310303,284.000671 523.315491,284.001251 
	C484.165894,284.012756 445.016266,284.002777 405.866669,284.016113 
	C398.647125,284.018585 397.025574,285.638824 397.024506,292.745880 
	C397.017700,338.059448 397.016357,383.373047 397.023529,428.686615 
	C397.024719,436.272034 398.755371,437.964325 406.471558,437.964630 
	C496.432343,437.968414 586.393127,437.967987 676.353882,437.965393 
	C683.907776,437.965179 685.954346,435.861420 685.954712,428.113708 
	C685.957031,383.299896 685.957153,338.486115 685.953857,293.672302 
	C685.953247,286.125610 683.808289,284.013824 676.152954,284.010864 
	C639.335999,283.996674 602.518982,283.986450 565.216064,283.896271 
	C569.218018,279.174500 573.613892,274.435150 578.275574,269.973572 
	C579.151306,269.135406 581.088318,269.197815 582.536072,269.196228 
	C617.864441,269.157471 653.192932,269.171631 688.521362,269.159088 
	C692.408752,269.157715 695.878357,269.800354 697.296082,274.907288 
	C697.210022,277.722260 697.128601,279.719971 697.128357,281.717651 
	C697.120667,336.540955 697.124512,391.364227 697.108093,446.187531 
	C697.107483,448.276642 696.924927,450.365723 696.806824,452.887970 
	C694.466248,452.887970 692.664795,452.888031 690.863342,452.888000 
	C590.548340,452.887634 490.233398,452.888672 389.918427,452.875000 
	C388.092712,452.874756 386.266968,452.698669 384.441223,452.604614 
	C384.385284,431.444885 384.298004,410.285187 384.280640,389.125427 
	C384.253448,355.965759 384.256134,322.806000 384.295258,289.646362 
	C384.300140,285.490631 384.571167,281.333679 384.775574,277.180084 
	C385.028961,272.030518 387.641327,269.369568 392.933044,269.209991 
	C398.260559,269.049408 403.596405,269.163025 408.928619,269.162750 
	C442.588196,269.161041 476.248199,269.238190 509.906860,269.063232 
	C514.133179,269.041290 517.207397,270.159729 519.903076,273.337280 
	C522.803223,276.755798 526.039734,279.888977 529.214722,283.477234 
z"/>
<path fill="#749AC7" opacity="1.000000" stroke="none" 
	d="
M384.309143,453.083954 
	C386.266968,452.698669 388.092712,452.874756 389.918427,452.875000 
	C490.233398,452.888672 590.548340,452.887634 690.863342,452.888000 
	C692.664795,452.888031 694.466248,452.887970 696.806824,452.887970 
	C696.924927,450.365723 697.107483,448.276642 697.108093,446.187531 
	C697.124512,391.364227 697.120667,336.540955 697.128357,281.717651 
	C697.128601,279.719971 697.210022,277.722260 697.414673,275.260284 
	C698.051331,276.269867 698.940979,277.743286 698.942688,279.217712 
	C699.010559,339.373596 699.006836,399.529510 698.983765,459.685455 
	C698.981506,465.597015 695.165527,468.992615 688.562927,469.000977 
	C666.400208,469.029053 644.237488,469.004272 622.074768,469.012360 
	C603.744934,469.019073 585.415161,469.043701 566.228882,468.903503 
	C564.416992,468.506714 563.462158,468.060516 562.506104,468.057709 
	C546.699219,468.011688 530.892090,467.992889 515.085449,468.066925 
	C513.657593,468.073608 512.232910,468.759247 510.806763,469.129578 
	C473.425873,469.090149 436.044952,469.045441 398.664062,469.013977 
	C384.446442,469.002014 383.512909,468.020416 384.309143,453.083954 
z"/>
<path fill="#090909" opacity="1.000000" stroke="none" 
	d="
M558.457214,334.290649 
	C566.097961,343.748840 566.751709,355.264038 567.263550,366.682220 
	C567.756226,377.671997 567.137085,388.628967 563.410889,399.170624 
	C558.874878,412.002991 550.371277,418.315491 537.437744,418.412384 
	C524.773682,418.507263 514.801086,412.176941 510.959778,399.739136 
	C505.033936,380.551636 504.773956,360.991211 511.431030,341.884491 
	C516.067627,328.576843 524.715576,323.321686 539.355286,323.623383 
	C538.456055,328.379578 537.138184,333.052795 535.533691,338.134796 
	C532.868408,341.037750 529.069580,343.200836 528.395447,346.092377 
	C526.807861,352.902313 526.710938,360.059784 526.010864,367.076630 
	C525.638123,368.879059 525.265320,370.681519 524.905579,373.249573 
	C525.488037,378.941956 525.935303,383.887146 526.672668,388.788666 
	C527.113647,391.719757 527.720337,394.692017 528.767395,397.450317 
	C530.330688,401.568634 533.402771,403.795074 538.056335,403.380920 
	C543.300598,402.914215 545.896729,399.257050 546.434387,394.850555 
	C547.536743,385.816833 548.210388,376.687134 548.305664,367.589050 
	C548.372864,361.180664 547.195435,354.759186 546.573669,348.343567 
	C550.455200,343.728821 554.336731,339.114075 558.457214,334.290649 
z"/>
<path fill="#F7F7F8" opacity="1.000000" stroke="none" 
	d="
M546.329224,348.514099 
	C547.195435,354.759186 548.372864,361.180664 548.305664,367.589050 
	C548.210388,376.687134 547.536743,385.816833 546.434387,394.850555 
	C545.896729,399.257050 543.300598,402.914215 538.056335,403.380920 
	C533.402771,403.795074 530.330688,401.568634 528.767395,397.450317 
	C527.720337,394.692017 527.113647,391.719757 526.672668,388.788666 
	C525.935303,383.887146 525.488037,378.941956 525.040100,373.627289 
	C529.422424,368.312561 533.704773,363.404083 537.936340,358.452240 
	C540.690735,355.229004 543.371216,351.942688 546.329224,348.514099 
z"/>
<path fill="#93969A" opacity="1.000000" stroke="none" 
	d="
M510.856201,469.577911 
	C512.232910,468.759247 513.657593,468.073608 515.085449,468.066925 
	C530.892090,467.992889 546.699219,468.011688 562.506104,468.057709 
	C563.462158,468.060516 564.416992,468.506714 565.771729,468.929810 
	C566.109924,473.099304 566.048889,477.085632 565.947510,481.532867 
	C547.932129,481.997559 529.957092,482.001282 511.519897,482.006042 
	C511.007019,478.013458 510.956329,474.019867 510.856201,469.577911 
z"/>
<path fill="#DDE2E7" opacity="1.000000" stroke="none" 
	d="
M526.087280,366.723328 
	C526.710938,360.059784 526.807861,352.902313 528.395447,346.092377 
	C529.069580,343.200836 532.868408,341.037750 535.627441,338.481079 
	C533.551636,346.358887 531.150818,354.317139 528.590149,362.223633 
	C528.108215,363.711670 526.988831,364.993225 526.087280,366.723328 
z"/>
<path fill="#4F83A4" opacity="1.000000" stroke="none" 
	d="
M510.178314,142.582977 
	C510.141876,138.642731 510.004486,135.150162 510.143402,131.668625 
	C510.493927,122.883789 515.720398,116.897018 523.406433,116.295311 
	C531.972290,115.624733 538.329285,120.452934 539.580872,129.649048 
	C540.374756,135.482193 540.248718,141.537415 539.742493,147.424911 
	C539.171143,154.069656 533.541016,159.129333 527.263916,159.667191 
	C519.997498,160.289825 514.483398,156.943344 512.078247,150.242172 
	C511.243103,147.915421 510.816406,145.442062 510.178314,142.582977 
M526.299622,151.829269 
	C527.606995,150.133057 529.930664,148.497391 530.035889,146.729568 
	C530.386902,140.835327 530.312073,134.847733 529.583862,128.997543 
	C529.357544,127.179077 526.534851,125.683769 524.900757,124.040512 
	C523.277527,125.860588 520.496948,127.541290 520.257690,129.528030 
	C519.647827,134.592377 519.881592,139.820160 520.352356,144.929611 
	C520.634216,147.989609 521.517395,151.312347 526.299622,151.829269 
z"/>
<path fill="#4E83A4" opacity="1.000000" stroke="none" 
	d="
M546.277710,123.540283 
	C549.158081,116.449905 554.339600,113.643265 561.388062,114.117958 
	C568.058350,114.567177 571.737244,118.584908 573.727722,124.670784 
	C576.158997,132.104309 576.663269,139.608749 574.764771,147.188309 
	C573.185730,153.492157 568.439819,156.440689 562.484009,157.235123 
	C557.418884,157.910751 552.882935,156.091202 550.008057,151.665497 
	C544.422668,143.067047 544.013550,133.645782 546.277710,123.540283 
M558.559082,148.184082 
	C561.556335,150.216248 564.408020,149.770279 565.289795,146.306015 
	C567.175232,138.898697 566.465637,131.424744 563.464294,124.402863 
	C562.912292,123.111305 560.197693,121.970337 558.621338,122.131317 
	C557.324036,122.263802 555.290833,124.370705 555.208862,125.702568 
	C554.751282,133.136505 554.137695,140.687683 558.559082,148.184082 
z"/>
<path fill="#4E83A4" opacity="1.000000" stroke="none" 
	d="
M579.964172,127.064697 
	C580.433411,117.091064 583.421997,112.521019 590.499939,110.495049 
	C597.808533,108.403046 604.658020,111.594788 607.821106,118.536064 
	C611.096680,125.724213 611.745239,133.293747 610.882263,141.011795 
	C610.264221,146.539948 605.746033,151.548141 600.560547,152.590576 
	C594.589172,153.790985 589.273438,152.720062 585.476501,147.429489 
	C581.201843,141.473297 580.509277,134.516571 579.964172,127.064697 
M599.289246,122.453682 
	C598.142456,119.742294 596.831543,117.102997 593.174744,118.081535 
	C589.609314,119.035629 589.463501,122.056900 589.810120,124.909317 
	C590.444946,130.132904 590.962036,135.439575 592.402222,140.460938 
	C592.938599,142.331238 595.923889,143.499207 597.792419,144.987442 
	C599.112793,142.960312 601.563660,140.916321 601.533752,138.909332 
	C601.455627,133.669861 600.291504,128.446564 599.289246,122.453682 
z"/>
<path fill="#4E83A4" opacity="1.000000" stroke="none" 
	d="
M503.841156,128.358231 
	C503.879395,135.669662 504.663605,142.716064 503.564697,149.455399 
	C502.391541,156.650208 496.747345,160.522598 490.154877,160.693649 
	C483.483185,160.866745 477.794586,156.806274 475.780396,149.802765 
	C473.672607,142.473877 473.741089,134.961807 475.954681,127.666496 
	C478.077484,120.670479 482.758423,117.276726 489.460693,117.144974 
	C496.516663,117.006279 500.445923,119.977890 503.841156,128.358231 
M484.193756,135.804993 
	C484.518707,140.100204 484.472473,144.473785 485.354431,148.651428 
	C485.699097,150.284042 487.936096,151.953232 489.692474,152.664841 
	C490.550171,153.012329 493.394043,151.262497 493.442780,150.359589 
	C493.847961,142.857758 493.973450,135.326401 493.715881,127.820015 
	C493.680603,126.791481 491.043091,125.044899 489.663910,125.095322 
	C488.265381,125.146461 486.378052,126.746277 485.704163,128.148193 
	C484.730347,130.174088 484.657043,132.632874 484.193756,135.804993 
z"/>
<path fill="#4E83A4" opacity="1.000000" stroke="none" 
	d="
M469.071869,137.895432 
	C468.555969,141.465485 468.467896,144.705322 467.448090,147.619080 
	C464.628967,155.673904 460.618805,158.257187 452.518341,157.912766 
	C446.162323,157.642502 441.675934,153.966064 439.966980,146.460693 
	C438.090698,138.220322 438.195892,129.900650 442.180969,122.131287 
	C445.295013,116.060135 451.216858,113.589478 458.247162,115.096474 
	C464.075592,116.345833 468.262695,121.085091 468.830231,127.434044 
	C469.125916,130.742371 469.006500,134.087769 469.071869,137.895432 
M449.056671,145.825302 
	C450.799164,147.261536 452.368713,149.268997 454.363190,149.872742 
	C455.248871,150.140823 457.985535,147.705841 458.174713,146.272446 
	C458.993896,140.066757 459.537628,133.768478 459.373260,127.525162 
	C459.326874,125.763412 456.535675,124.073921 455.003418,122.351295 
	C453.301819,124.095833 450.442291,125.649841 450.117950,127.620995 
	C449.182404,133.306595 449.269073,139.160400 449.056671,145.825302 
z"/>
<path fill="#4F84A5" opacity="1.000000" stroke="none" 
	d="
M661.614624,104.816368 
	C660.383179,104.268150 659.210754,103.419525 658.575989,103.717255 
	C656.925903,104.491280 655.512024,105.768852 654.003906,106.845505 
	C655.183350,108.205421 656.132629,110.333229 657.588867,110.769669 
	C660.890564,111.759247 664.456055,111.834213 667.888489,112.429756 
	C673.420776,113.389618 676.033325,117.411980 677.206665,122.322617 
	C678.349304,127.104263 676.387573,131.203949 672.807678,134.360870 
	C665.766968,140.569641 653.081482,140.306305 649.354370,130.721802 
	C652.288330,128.270798 654.739929,125.293526 659.243103,129.170929 
	C660.550659,130.296768 663.927429,129.551987 666.104919,128.867203 
	C666.950867,128.601166 667.903015,125.265366 667.424927,124.823700 
	C665.878967,123.395439 663.781982,122.360535 661.726379,121.742256 
	C659.526306,121.080490 657.098816,121.219635 654.829346,120.734375 
	C648.994568,119.486763 645.598267,115.741928 645.056396,110.211288 
	C644.442383,103.944160 647.011597,99.363739 652.516846,96.910828 
	C658.532532,94.230461 664.764282,94.943344 668.179199,99.055374 
	C668.974487,100.012886 669.365906,102.719879 668.831482,103.113861 
	C666.893555,104.542442 665.234802,108.320824 661.614624,104.816368 
z"/>
<path fill="#4F83A4" opacity="1.000000" stroke="none" 
	d="
M642.517700,111.916367 
	C643.785095,124.694664 642.039185,126.913681 627.835022,130.530457 
	C628.737366,135.274673 629.650208,140.073715 630.688232,145.531067 
	C627.652405,146.029633 624.823059,146.494278 621.490173,147.041641 
	C618.673828,133.994843 615.880066,121.387451 613.365234,108.724655 
	C613.177551,107.779732 614.789246,105.719215 615.904968,105.411346 
	C619.730835,104.355629 623.685303,103.664635 627.632874,103.172348 
	C636.136536,102.111893 638.661804,103.624496 642.517700,111.916367 
M625.746521,121.550011 
	C627.759888,121.404068 631.003357,121.934204 631.532104,120.972260 
	C632.653870,118.931419 633.035522,115.926910 632.413818,113.678955 
	C631.994324,112.162346 629.481445,110.657333 627.653931,110.236046 
	C625.171204,109.663727 623.523010,111.156906 624.047363,114.038681 
	C624.461060,116.312347 624.960266,118.570465 625.746521,121.550011 
z"/>
<path fill="#588CAB" opacity="1.000000" stroke="none" 
	d="
M699.303040,117.979614 
	C701.645935,116.267349 704.070862,114.909668 706.495728,113.551987 
	C707.622437,115.873833 709.371094,118.136108 709.601685,120.543762 
	C709.709778,121.672485 707.061401,123.508705 705.332581,124.201729 
	C704.312927,124.610458 702.253906,123.777222 701.374329,122.836739 
	C700.316284,121.705269 700.014343,119.866646 699.303040,117.979614 
z"/>
<path fill="#588CAB" opacity="1.000000" stroke="none" 
	d="
M691.323425,130.161957 
	C689.171509,130.469772 686.195435,131.359528 685.777893,130.679153 
	C684.493225,128.585846 683.338501,125.707222 683.818542,123.500351 
	C684.108093,122.168907 687.462524,121.124420 689.577881,120.765778 
	C690.369873,120.631500 692.106201,122.668449 692.429199,123.961021 
	C692.916565,125.911537 695.785950,128.550385 691.323425,130.161957 
z"/>
<path fill="#588CAB" opacity="1.000000" stroke="none" 
	d="
M718.783142,107.093918 
	C721.696167,107.114410 725.619629,111.653061 724.308289,113.761276 
	C723.100830,115.702324 720.020691,116.478424 717.765503,117.767731 
	C716.547302,115.218681 715.068298,112.740479 714.339783,110.058434 
	C714.200745,109.546524 717.023438,108.230141 718.783142,107.093918 
z"/>
<path fill="#44799D" opacity="1.000000" stroke="none" 
	d="
M509.525208,509.004913 
	C525.878967,508.988953 541.764771,508.960876 557.650391,509.011322 
	C560.592529,509.020721 563.533691,509.346527 566.732178,509.277283 
	C592.977478,509.054718 618.966003,509.081177 645.442932,509.640259 
	C645.987122,518.488159 646.042908,526.803406 646.098633,535.118652 
	C644.120544,535.295471 642.142578,535.626038 640.164429,535.626831 
	C572.702393,535.653809 505.240326,535.651855 437.778290,535.637939 
	C435.783783,535.637512 433.789307,535.463928 431.369873,534.814209 
	C431.001434,525.915894 431.057922,517.574524 431.114380,509.233154 
	C457.095337,509.162079 483.076263,509.091003 509.525208,509.004913 
z"/>
<path fill="#7DA0C5" opacity="1.000000" stroke="none" 
	d="
M430.705933,509.230804 
	C431.057922,517.574524 431.001434,525.915894 430.961975,534.743774 
	C430.327271,534.822449 429.112122,534.421204 429.107269,534.005859 
	C429.016266,526.225342 429.047455,518.442810 429.142792,510.661804 
	C429.148712,510.179382 429.895447,509.706024 430.705933,509.230804 
z"/>
<path fill="#7DA0C5" opacity="1.000000" stroke="none" 
	d="
M646.492737,535.025757 
	C646.042908,526.803406 645.987122,518.488159 645.894531,509.728821 
	C646.418945,509.519562 647.473999,509.762268 647.470337,509.987946 
	C647.336792,518.303955 647.105103,526.618347 646.492737,535.025757 
z"/>
<path fill="#0B0B0B" opacity="1.000000" stroke="none" 
	d="
M474.999176,325.131592 
	C481.308960,325.131592 487.118958,325.131592 493.275208,325.131592 
	C493.275208,330.674225 493.275208,335.909180 493.275208,341.866699 
	C484.476410,341.866699 475.727448,341.865814 466.978455,341.867004 
	C459.731567,341.868011 459.742737,341.870514 458.816376,349.101410 
	C458.526184,351.366272 458.158020,353.621155 457.703918,356.707031 
	C470.096466,352.967621 481.108032,354.078827 489.981384,363.732422 
	C495.969086,370.246643 497.974457,378.213135 497.674194,386.777710 
	C497.000488,405.992981 483.267700,419.041779 464.602509,418.438171 
	C448.264221,417.909790 435.510742,406.838531 435.882599,393.058167 
	C438.879028,392.631409 441.970581,392.218872 445.052795,391.745544 
	C449.635010,391.041901 453.347229,390.692505 455.155304,396.864594 
	C456.722351,402.213837 462.608551,404.719818 467.600830,403.960968 
	C473.002808,403.139862 477.623596,398.923462 478.425201,393.020721 
	C479.022614,388.622040 479.186401,383.973969 478.447723,379.622955 
	C476.774994,369.770111 464.796753,365.285675 456.534576,372.048035 
	C450.745575,376.786102 445.395660,374.634308 439.715302,373.849579 
	C438.922852,373.740082 437.668549,371.655029 437.838074,370.699036 
	C440.362549,356.462219 443.004150,342.243652 445.925873,328.084290 
	C446.176361,326.870209 448.579956,325.312469 450.028534,325.264008 
	C458.177826,324.991211 466.340973,325.131897 474.999176,325.131592 
z"/>
<path fill="#0B0B0B" opacity="1.000000" stroke="none" 
	d="
M626.744385,329.230896 
	C632.934143,334.437592 636.403870,340.504089 636.099731,348.519165 
	C635.791321,356.648895 630.601807,361.642639 624.970032,366.109528 
	C625.224548,366.845703 625.255554,367.362030 625.448059,367.431641 
	C642.050171,373.432953 643.596863,392.393860 635.879517,404.526215 
	C628.912354,415.479340 615.953125,420.446869 601.253052,417.828705 
	C590.785706,415.964447 581.712769,406.941437 579.266907,396.413208 
	C578.510925,393.159180 579.118408,391.740936 582.558105,391.510162 
	C586.850403,391.222198 591.123169,390.643188 595.331909,390.197510 
	C599.637085,401.538452 604.243103,404.956299 612.379944,403.020752 
	C618.634277,401.533051 622.425415,394.542511 621.674377,386.212433 
	C621.240723,381.403534 619.520081,376.942078 615.004883,375.331482 
	C611.013245,373.907654 606.389648,374.255341 601.552917,373.771667 
	C602.024414,370.159210 602.280884,366.028198 603.274353,362.082794 
	C603.527344,361.078369 606.059692,360.311646 607.648132,360.039520 
	C613.722107,358.999176 617.558838,355.244965 617.908264,349.638855 
	C618.255554,344.067108 615.808960,340.058533 611.233948,338.703339 
	C606.267151,337.232117 600.474854,339.753296 598.181152,344.513489 
	C597.324402,346.291534 596.762512,348.211609 595.893555,350.526917 
	C590.748474,349.689758 585.705383,348.869232 580.127625,347.961700 
	C581.333313,339.193390 584.574768,331.736633 592.486694,327.557617 
	C603.923767,321.516663 615.438843,321.550262 626.744385,329.230896 
z"/>
<path fill="#CBF3F6" opacity="1.000000" stroke="none" 
	d="
M525.917908,151.886047 
	C521.517395,151.312347 520.634216,147.989609 520.352356,144.929611 
	C519.881592,139.820160 519.647827,134.592377 520.257690,129.528030 
	C520.496948,127.541290 523.277527,125.860588 524.900757,124.040512 
	C526.534851,125.683769 529.357544,127.179077 529.583862,128.997543 
	C530.312073,134.847733 530.386902,140.835327 530.035889,146.729568 
	C529.930664,148.497391 527.606995,150.133057 525.917908,151.886047 
z"/>
<path fill="#CBF3F6" opacity="1.000000" stroke="none" 
	d="
M558.268188,147.897873 
	C554.137695,140.687683 554.751282,133.136505 555.208862,125.702568 
	C555.290833,124.370705 557.324036,122.263802 558.621338,122.131317 
	C560.197693,121.970337 562.912292,123.111305 563.464294,124.402863 
	C566.465637,131.424744 567.175232,138.898697 565.289795,146.306015 
	C564.408020,149.770279 561.556335,150.216248 558.268188,147.897873 
z"/>
<path fill="#CCF4F6" opacity="1.000000" stroke="none" 
	d="
M599.424866,122.835251 
	C600.291504,128.446564 601.455627,133.669861 601.533752,138.909332 
	C601.563660,140.916321 599.112793,142.960312 597.792419,144.987442 
	C595.923889,143.499207 592.938599,142.331238 592.402222,140.460938 
	C590.962036,135.439575 590.444946,130.132904 589.810120,124.909317 
	C589.463501,122.056900 589.609314,119.035629 593.174744,118.081535 
	C596.831543,117.102997 598.142456,119.742294 599.424866,122.835251 
z"/>
<path fill="#CAF2F5" opacity="1.000000" stroke="none" 
	d="
M484.196655,135.355972 
	C484.657043,132.632874 484.730347,130.174088 485.704163,128.148193 
	C486.378052,126.746277 488.265381,125.146461 489.663910,125.095322 
	C491.043091,125.044899 493.680603,126.791481 493.715881,127.820015 
	C493.973450,135.326401 493.847961,142.857758 493.442780,150.359589 
	C493.394043,151.262497 490.550171,153.012329 489.692474,152.664841 
	C487.936096,151.953232 485.699097,150.284042 485.354431,148.651428 
	C484.472473,144.473785 484.518707,140.100204 484.196655,135.355972 
z"/>
<path fill="#CAF2F5" opacity="1.000000" stroke="none" 
	d="
M449.005493,145.386719 
	C449.269073,139.160400 449.182404,133.306595 450.117950,127.620995 
	C450.442291,125.649841 453.301819,124.095833 455.003418,122.351288 
	C456.535675,124.073921 459.326874,125.763412 459.373260,127.525162 
	C459.537628,133.768478 458.993896,140.066757 458.174713,146.272446 
	C457.985535,147.705841 455.248871,150.140823 454.363190,149.872742 
	C452.368713,149.268997 450.799164,147.261536 449.005493,145.386719 
z"/>
<path fill="#C3EDF1" opacity="1.000000" stroke="none" 
	d="
M625.583984,121.192749 
	C624.960266,118.570465 624.461060,116.312347 624.047363,114.038681 
	C623.523010,111.156906 625.171204,109.663727 627.653931,110.236046 
	C629.481445,110.657333 631.994324,112.162346 632.413818,113.678955 
	C633.035522,115.926910 632.653870,118.931419 631.532104,120.972260 
	C631.003357,121.934204 627.759888,121.404068 625.583984,121.192749 
z"/>
</svg>