<svg version="1.1" id="Layer_1" xmlns="http://www.w3.org/2000/svg" xmlns:xlink="http://www.w3.org/1999/xlink" x="0px" y="0px"
	 width="100%" viewBox="0 0 939 940" enable-background="new 0 0 939 940" xml:space="preserve">
<path fill="#000000" opacity="1.000000" stroke="none" 
	d="
M502.000000,941.000000 
	C334.666656,941.000000 167.833328,941.000000 1.000000,941.000000 
	C1.000000,627.666687 1.000000,314.333344 1.000000,1.000000 
	C314.000000,1.000000 627.000000,1.000000 940.000000,1.000000 
	C940.000000,314.333344 940.000000,627.666687 940.000000,941.000000 
	C794.166687,941.000000 648.333313,941.000000 502.000000,941.000000 
M302.035370,895.527283 
	C303.110535,895.908508 304.178070,896.312988 305.261993,896.667480 
	C320.907410,901.784607 336.325928,907.819519 352.261353,911.767944 
	C371.245544,916.471924 390.617920,919.716858 409.929901,922.950195 
	C421.729126,924.925720 433.712524,926.543884 445.646210,926.802917 
	C464.399414,927.209961 483.209656,926.865112 501.940277,925.832275 
	C516.492737,925.029785 530.981995,922.858459 545.461121,920.997620 
	C567.056335,918.222290 588.001770,912.597351 608.741455,906.106018 
	C641.037720,895.997498 671.550293,881.971313 700.851624,865.091492 
	C735.385620,845.197266 766.203674,820.543701 794.606323,792.772644 
	C801.326721,786.201660 807.639771,779.140686 813.543762,771.823730 
	C825.271667,757.289062 837.177246,742.837463 847.932251,727.591736 
	C864.661743,703.876831 878.444031,678.412476 889.770020,651.644775 
	C898.299683,631.486023 905.667603,610.963135 911.175781,589.740967 
	C916.480591,569.302490 921.090454,548.760498 922.980713,527.705811 
	C924.497498,510.811584 925.995178,493.903259 926.864990,476.968506 
	C927.304871,468.404572 926.649170,459.742188 925.937195,451.170166 
	C924.495422,433.811005 922.986450,416.446503 920.939636,399.151154 
	C918.187927,375.898926 912.166016,353.337097 905.030945,331.093689 
	C894.608582,298.602173 880.624329,267.740417 863.206482,238.331192 
	C843.238403,204.615952 819.115967,174.236252 791.743286,146.358826 
	C785.507690,140.008133 778.774170,134.087906 771.860168,128.473999 
	C758.247375,117.420937 744.650024,106.307381 730.498535,95.968613 
	C706.773315,78.635597 680.903625,64.956734 654.097961,53.009506 
	C631.541748,42.956234 608.379028,34.557087 584.305237,29.087320 
	C566.809204,25.112064 549.106506,21.948469 531.390381,19.073792 
	C519.414673,17.130575 507.271454,15.393698 495.175171,15.184641 
	C466.052490,14.681317 436.852570,13.907250 407.956879,19.002939 
	C393.808258,21.498013 379.445526,23.251226 365.613525,26.958769 
	C344.699951,32.564465 323.891052,38.826122 303.537292,46.189899 
	C276.258636,56.059044 250.663300,69.633087 226.223038,85.286362 
	C206.178802,98.124115 186.566483,111.612732 169.396133,128.200836 
	C153.593430,143.467697 137.224228,158.341949 123.032631,175.028885 
	C108.452347,192.172806 95.563370,210.875214 83.092880,229.664597 
	C65.299294,256.474304 51.883656,285.611206 40.984711,315.868408 
	C31.952585,340.943054 24.534018,366.492554 21.009157,392.967316 
	C18.281231,413.456390 15.409698,433.995331 14.245234,454.604919 
	C12.994679,476.738220 13.763186,498.988220 17.025921,521.011658 
	C19.493275,537.666321 21.749821,554.384521 25.115993,570.866943 
	C32.104851,605.087769 43.870331,637.763489 59.074673,669.177612 
	C70.145088,692.050537 83.043320,713.826599 97.733665,734.625305 
	C111.342384,753.892578 126.441551,771.862427 142.617828,788.915405 
	C151.487244,798.265564 160.967514,807.171326 170.995331,815.256775 
	C187.045868,828.198303 203.440048,840.775940 220.306427,852.628784 
	C245.430618,870.284851 272.809479,883.884766 302.035370,895.527283 
z"/>
<path fill="#1ED760" opacity="1.000000" stroke="none" 
	d="
M301.708496,895.306030 
	C272.809479,883.884766 245.430618,870.284851 220.306427,852.628784 
	C203.440048,840.775940 187.045868,828.198303 170.995331,815.256775 
	C160.967514,807.171326 151.487244,798.265564 142.617828,788.915405 
	C126.441551,771.862427 111.342384,753.892578 97.733665,734.625305 
	C83.043320,713.826599 70.145088,692.050537 59.074673,669.177612 
	C43.870331,637.763489 32.104851,605.087769 25.115993,570.866943 
	C21.749821,554.384521 19.493275,537.666321 17.025921,521.011658 
	C13.763186,498.988220 12.994679,476.738220 14.245234,454.604919 
	C15.409698,433.995331 18.281231,413.456390 21.009157,392.967316 
	C24.534018,366.492554 31.952585,340.943054 40.984711,315.868408 
	C51.883656,285.611206 65.299294,256.474304 83.092880,229.664597 
	C95.563370,210.875214 108.452347,192.172806 123.032631,175.028885 
	C137.224228,158.341949 153.593430,143.467697 169.396133,128.200836 
	C186.566483,111.612732 206.178802,98.124115 226.223038,85.286362 
	C250.663300,69.633087 276.258636,56.059044 303.537292,46.189899 
	C323.891052,38.826122 344.699951,32.564465 365.613525,26.958769 
	C379.445526,23.251226 393.808258,21.498013 407.956879,19.002939 
	C436.852570,13.907250 466.052490,14.681317 495.175171,15.184641 
	C507.271454,15.393698 519.414673,17.130575 531.390381,19.073792 
	C549.106506,21.948469 566.809204,25.112064 584.305237,29.087320 
	C608.379028,34.557087 631.541748,42.956234 654.097961,53.009506 
	C680.903625,64.956734 706.773315,78.635597 730.498535,95.968613 
	C744.650024,106.307381 758.247375,117.420937 771.860168,128.473999 
	C778.774170,134.087906 785.507690,140.008133 791.743286,146.358826 
	C819.115967,174.236252 843.238403,204.615952 863.206482,238.331192 
	C880.624329,267.740417 894.608582,298.602173 905.030945,331.093689 
	C912.166016,353.337097 918.187927,375.898926 920.939636,399.151154 
	C922.986450,416.446503 924.495422,433.811005 925.937195,451.170166 
	C926.649170,459.742188 927.304871,468.404572 926.864990,476.968506 
	C925.995178,493.903259 924.497498,510.811584 922.980713,527.705811 
	C921.090454,548.760498 916.480591,569.302490 911.175781,589.740967 
	C905.667603,610.963135 898.299683,631.486023 889.770020,651.644775 
	C878.444031,678.412476 864.661743,703.876831 847.932251,727.591736 
	C837.177246,742.837463 825.271667,757.289062 813.543762,771.823730 
	C807.639771,779.140686 801.326721,786.201660 794.606323,792.772644 
	C766.203674,820.543701 735.385620,845.197266 700.851624,865.091492 
	C671.550293,881.971313 641.037720,895.997498 608.741455,906.106018 
	C588.001770,912.597351 567.056335,918.222290 545.461121,920.997620 
	C530.981995,922.858459 516.492737,925.029785 501.940277,925.832275 
	C483.209656,926.865112 464.399414,927.209961 445.646210,926.802917 
	C433.712524,926.543884 421.729126,924.925720 409.929901,922.950195 
	C390.617920,919.716858 371.245544,916.471924 352.261353,911.767944 
	C336.325928,907.819519 320.907410,901.784607 305.261993,896.667480 
	C304.178070,896.312988 303.110535,895.908508 301.708496,895.306030 
M808.926758,393.836365 
	C805.022339,384.475739 799.422607,376.194672 790.164917,371.765472 
	C762.714172,358.632263 735.417542,345.042175 707.302368,333.473572 
	C683.065613,323.500763 657.907715,315.689362 632.943420,307.580048 
	C596.260559,295.664154 558.600342,287.554230 520.616638,281.203430 
	C497.516327,277.341095 474.212158,274.465729 450.897888,272.187805 
	C431.838409,270.325623 412.637238,269.460754 393.482697,269.148743 
	C373.224854,268.818726 352.938080,269.383942 332.682556,270.091309 
	C317.690033,270.614929 302.694183,271.647491 287.760132,273.081390 
	C271.114655,274.679688 254.491196,276.671631 237.943878,279.081085 
	C222.594223,281.316132 207.262527,283.880249 192.094147,287.104950 
	C170.841553,291.623077 158.900909,308.750458 158.291306,328.217407 
	C157.815857,343.400330 164.502045,356.490173 177.762894,364.769165 
	C187.048538,370.566406 197.227814,373.674561 208.700363,371.138580 
	C221.611359,368.284668 234.673019,365.980743 247.765717,364.115326 
	C262.543457,362.009918 277.400787,360.332855 292.274078,359.060852 
	C311.658905,357.403015 331.076874,355.621063 350.510468,355.163849 
	C380.340637,354.461975 410.196228,354.649506 439.937531,357.954437 
	C451.381165,359.226074 462.950256,359.513000 474.334503,361.141388 
	C492.127167,363.686401 509.835083,366.856903 527.536011,370.003571 
	C558.408203,375.491699 588.776550,383.152313 618.530884,392.968842 
	C640.512878,400.221191 662.401428,407.912567 683.832764,416.633942 
	C704.414429,425.009491 724.518433,434.625336 744.504822,444.368011 
	C754.083374,449.037231 763.253052,452.451233 774.320129,451.180389 
	C799.285034,448.313477 819.125793,419.945709 808.926758,393.836365 
M186.988876,466.682129 
	C182.305038,480.112030 185.423004,492.132019 194.853363,502.108917 
	C202.354446,510.044739 212.286911,514.325012 223.321289,512.684204 
	C251.615509,508.476776 279.719391,502.884735 308.081055,499.272522 
	C326.717499,496.898895 345.663666,496.362000 364.482330,496.182983 
	C382.848267,496.008240 401.233643,497.218811 419.600128,498.050049 
	C428.318756,498.444641 437.072906,498.944519 445.705994,500.149139 
	C462.385468,502.476532 479.074799,504.901154 495.603607,508.094940 
	C513.688843,511.589478 531.871826,515.062744 549.516479,520.236023 
	C574.206604,527.475098 598.869629,535.195862 622.745239,544.714661 
	C647.026062,554.394897 670.358459,566.461853 694.060425,577.581116 
	C701.014954,580.843628 707.867615,582.619385 715.802612,581.138306 
	C731.610474,578.187683 745.973450,562.136719 744.873779,546.742432 
	C743.855347,532.485535 736.957947,521.526733 723.953369,515.028442 
	C708.881470,507.497070 693.877808,499.779083 678.484436,492.954346 
	C660.889648,485.153625 643.083984,477.746460 625.038879,471.062012 
	C593.347351,459.322571 560.867371,450.096832 527.792725,443.119415 
	C513.252686,440.052032 498.609741,437.393280 483.926636,435.107239 
	C472.262512,433.291229 460.483612,432.140839 448.724274,431.025543 
	C432.828430,429.517944 416.915588,427.419037 400.986786,427.189880 
	C368.327789,426.720093 335.617493,425.981079 303.056824,429.955353 
	C295.054504,430.932129 286.953217,431.115234 278.960663,432.151154 
	C268.422302,433.517029 257.909241,435.159943 247.453140,437.057556 
	C234.928665,439.330536 222.352203,441.510864 210.028305,444.637970 
	C198.845428,447.475525 191.546646,455.362274 186.988876,466.682129 
M570.496155,657.999573 
	C572.162476,658.666199 573.868774,659.248047 575.489075,660.012268 
	C597.520020,670.402954 619.691467,680.514343 641.469116,691.412292 
	C648.103088,694.732056 654.349304,697.461792 661.744507,695.968201 
	C672.467285,693.802734 679.651855,687.437622 682.902588,676.991455 
	C685.909851,667.327515 683.795105,658.119690 676.125427,652.050415 
	C667.725098,645.402710 658.005127,640.341064 648.571655,635.108459 
	C642.088989,631.512512 635.166687,628.682617 628.348877,625.722351 
	C611.557800,618.431641 594.928223,610.696594 577.825134,604.218811 
	C563.214111,598.684875 548.136414,594.289368 533.077026,590.060303 
	C519.442078,586.231323 505.647858,582.819458 491.750122,580.117065 
	C476.674194,577.185547 461.448608,574.854736 446.195099,573.049500 
	C428.242218,570.924744 410.216309,568.805664 392.172424,568.224365 
	C372.105652,567.577881 351.978546,568.508850 331.886780,569.074463 
	C323.337341,569.315063 314.767395,570.036743 306.284149,571.136597 
	C293.311340,572.818481 280.345612,574.695129 267.487885,577.086060 
	C254.194397,579.558105 240.880585,582.186829 227.856262,585.767639 
	C214.075790,589.556335 207.145752,603.983276 210.587524,616.956238 
	C214.544571,631.871521 228.823456,639.355774 243.408173,636.421143 
	C266.622009,631.750244 289.967407,627.593201 313.398895,624.196533 
	C327.390839,622.168335 341.639984,621.548584 355.797821,621.142639 
	C367.879242,620.796204 380.015106,621.332886 392.091370,622.064941 
	C409.016235,623.090820 425.934662,624.396484 442.804230,626.095337 
	C453.039917,627.126160 463.275787,628.662720 473.338684,630.790161 
	C491.038788,634.532166 508.766876,638.325806 526.180176,643.184143 
	C540.913574,647.294739 555.218323,652.941895 570.496155,657.999573 
z"/>
<path fill="#000000" opacity="1.000000" stroke="none" 
	d="
M808.967468,394.234497 
	C819.125793,419.945709 799.285034,448.313477 774.320129,451.180389 
	C763.253052,452.451233 754.083374,449.037231 744.504822,444.368011 
	C724.518433,434.625336 704.414429,425.009491 683.832764,416.633942 
	C662.401428,407.912567 640.512878,400.221191 618.530884,392.968842 
	C588.776550,383.152313 558.408203,375.491699 527.536011,370.003571 
	C509.835083,366.856903 492.127167,363.686401 474.334503,361.141388 
	C462.950256,359.513000 451.381165,359.226074 439.937531,357.954437 
	C410.196228,354.649506 380.340637,354.461975 350.510468,355.163849 
	C331.076874,355.621063 311.658905,357.403015 292.274078,359.060852 
	C277.400787,360.332855 262.543457,362.009918 247.765717,364.115326 
	C234.673019,365.980743 221.611359,368.284668 208.700363,371.138580 
	C197.227814,373.674561 187.048538,370.566406 177.762894,364.769165 
	C164.502045,356.490173 157.815857,343.400330 158.291306,328.217407 
	C158.900909,308.750458 170.841553,291.623077 192.094147,287.104950 
	C207.262527,283.880249 222.594223,281.316132 237.943878,279.081085 
	C254.491196,276.671631 271.114655,274.679688 287.760132,273.081390 
	C302.694183,271.647491 317.690033,270.614929 332.682556,270.091309 
	C352.938080,269.383942 373.224854,268.818726 393.482697,269.148743 
	C412.637238,269.460754 431.838409,270.325623 450.897888,272.187805 
	C474.212158,274.465729 497.516327,277.341095 520.616638,281.203430 
	C558.600342,287.554230 596.260559,295.664154 632.943420,307.580048 
	C657.907715,315.689362 683.065613,323.500763 707.302368,333.473572 
	C735.417542,345.042175 762.714172,358.632263 790.164917,371.765472 
	C799.422607,376.194672 805.022339,384.475739 808.967468,394.234497 
z"/>
<path fill="#000000" opacity="1.000000" stroke="none" 
	d="
M187.028137,466.281433 
	C191.546646,455.362274 198.845428,447.475525 210.028305,444.637970 
	C222.352203,441.510864 234.928665,439.330536 247.453140,437.057556 
	C257.909241,435.159943 268.422302,433.517029 278.960663,432.151154 
	C286.953217,431.115234 295.054504,430.932129 303.056824,429.955353 
	C335.617493,425.981079 368.327789,426.720093 400.986786,427.189880 
	C416.915588,427.419037 432.828430,429.517944 448.724274,431.025543 
	C460.483612,432.140839 472.262512,433.291229 483.926636,435.107239 
	C498.609741,437.393280 513.252686,440.052032 527.792725,443.119415 
	C560.867371,450.096832 593.347351,459.322571 625.038879,471.062012 
	C643.083984,477.746460 660.889648,485.153625 678.484436,492.954346 
	C693.877808,499.779083 708.881470,507.497070 723.953369,515.028442 
	C736.957947,521.526733 743.855347,532.485535 744.873779,546.742432 
	C745.973450,562.136719 731.610474,578.187683 715.802612,581.138306 
	C707.867615,582.619385 701.014954,580.843628 694.060425,577.581116 
	C670.358459,566.461853 647.026062,554.394897 622.745239,544.714661 
	C598.869629,535.195862 574.206604,527.475098 549.516479,520.236023 
	C531.871826,515.062744 513.688843,511.589478 495.603607,508.094940 
	C479.074799,504.901154 462.385468,502.476532 445.705994,500.149139 
	C437.072906,498.944519 428.318756,498.444641 419.600128,498.050049 
	C401.233643,497.218811 382.848267,496.008240 364.482330,496.182983 
	C345.663666,496.362000 326.717499,496.898895 308.081055,499.272522 
	C279.719391,502.884735 251.615509,508.476776 223.321289,512.684204 
	C212.286911,514.325012 202.354446,510.044739 194.853363,502.108917 
	C185.423004,492.132019 182.305038,480.112030 187.028137,466.281433 
z"/>
<path fill="#000000" opacity="1.000000" stroke="none" 
	d="
M570.104492,657.954346 
	C555.218323,652.941895 540.913574,647.294739 526.180176,643.184143 
	C508.766876,638.325806 491.038788,634.532166 473.338684,630.790161 
	C463.275787,628.662720 453.039917,627.126160 442.804230,626.095337 
	C425.934662,624.396484 409.016235,623.090820 392.091370,622.064941 
	C380.015106,621.332886 367.879242,620.796204 355.797821,621.142639 
	C341.639984,621.548584 327.390839,622.168335 313.398895,624.196533 
	C289.967407,627.593201 266.622009,631.750244 243.408173,636.421143 
	C228.823456,639.355774 214.544571,631.871521 210.587524,616.956238 
	C207.145752,603.983276 214.075790,589.556335 227.856262,585.767639 
	C240.880585,582.186829 254.194397,579.558105 267.487885,577.086060 
	C280.345612,574.695129 293.311340,572.818481 306.284149,571.136597 
	C314.767395,570.036743 323.337341,569.315063 331.886780,569.074463 
	C351.978546,568.508850 372.105652,567.577881 392.172424,568.224365 
	C410.216309,568.805664 428.242218,570.924744 446.195099,573.049500 
	C461.448608,574.854736 476.674194,577.185547 491.750122,580.117065 
	C505.647858,582.819458 519.442078,586.231323 533.077026,590.060303 
	C548.136414,594.289368 563.214111,598.684875 577.825134,604.218811 
	C594.928223,610.696594 611.557800,618.431641 628.348877,625.722351 
	C635.166687,628.682617 642.088989,631.512512 648.571655,635.108459 
	C658.005127,640.341064 667.725098,645.402710 676.125427,652.050415 
	C683.795105,658.119690 685.909851,667.327515 682.902588,676.991455 
	C679.651855,687.437622 672.467285,693.802734 661.744507,695.968201 
	C654.349304,697.461792 648.103088,694.732056 641.469116,691.412292 
	C619.691467,680.514343 597.520020,670.402954 575.489075,660.012268 
	C573.868774,659.248047 572.162476,658.666199 570.104492,657.954346 
z"/>
</svg>