<?xml version="1.0" encoding="UTF-8"?>
<svg version="1.1" viewBox="0 0 939 940" width="1280" height="1280" xmlns="http://www.w3.org/2000/svg">
<path transform="translate(441,14)" d="m0 0h57l31 3 30 5 26 6 31 9 29 11 24 11 20 10 17 10 22 14 16 12 14 11 13 11 13 12 24 24 7 8 11 13 12 16 12 17 13 21 10 18 8 15 14 32 12 35 8 30 6 32 4 35 1 18v33l-2 30-4 30-7 34-8 28-10 29-11 25-9 19-13 23-12 19-12 17-10 13-11 13-9 11-32 32-11 9-9 8-20 15-19 13-25 15-27 14-20 9-29 11-34 10-33 7-28 4-23 2h-57l-31-3-31-5-29-7-27-8-29-11-20-9-26-13-20-12-21-14-19-14-13-11-14-12-11-11-5-4-7-8-9-9-9-11-11-13-14-19-15-23-12-21-12-23-12-28-10-28-9-32-7-36-3-23-2-27v-41l2-27 4-30 6-29 8-30 9-26 11-26 12-25 10-18 12-19 11-16 9-12 8-10 11-13 11-12 7-7 4-5 8-7 8-8 11-9 13-11 16-12 21-14 20-12 27-14 24-11 30-11 31-9 27-6 25-4zm-106 254-34 2-40 4-41 6-31 6-12 5-11 10-5 8-3 9-1 5v9l3 12 6 11 7 7 8 5 13 4h12l40-7 38-5 35-3 19-1h64l34 2 46 5 43 7 41 9 34 9 38 12 35 13 35 15 29 14 17 8 10 2h8l12-3 10-6 6-5 7-11 3-9 1-13-3-12-4-8-9-10-13-8-33-16-37-16-37-14-36-12-42-12-43-10-45-8-37-5-46-4-20-1zm-1 158-39 3-39 5-38 7-12 3-10 6-7 8-4 9-1 4v12l4 11 6 8 8 6 7 3 5 1h9l37-7 36-5 35-3 25-1h29l39 2 38 4 36 6 33 7 30 8 43 14 30 12 29 13 34 17 8 2 13-1 12-6 7-7 5-9 2-10-1-11-6-12-5-6-10-6-29-15-29-13-30-12-34-12-42-12-34-8-32-6-36-5-32-3-17-1zm7 141-37 3-35 5-35 7-12 4-9 8-4 9v13l4 9 4 5 9 5 3 1h13l34-7 26-4 31-3 20-1h35l33 2 33 4 33 6 36 9 26 8 32 12 33 15 25 13 10 5 9 1 8-2 7-4 7-8 3-8v-10l-4-10-5-6-16-9-23-12-26-12-28-11-36-12-29-8-32-7-38-6-30-3-16-1z"/>
</svg>
